<?xml version="1.0" standalone="no"?>
<!DOCTYPE svg PUBLIC "-//W3C//DTD SVG 1.1//EN" "http://www.w3.org/Graphics/SVG/1.1/DTD/svg11.dtd" >
<svg xmlns="http://www.w3.org/2000/svg">
<metadata></metadata>
<defs>
<font id="fregatbold" horiz-adv-x="1060" >
<font-face units-per-em="2048" ascent="1638" descent="-410" />
<missing-glyph horiz-adv-x="675" />
<glyph horiz-adv-x="0" />
<glyph unicode="&#xd;" horiz-adv-x="681" />
<glyph unicode=" "  horiz-adv-x="675" />
<glyph unicode="&#x09;" horiz-adv-x="675" />
<glyph unicode="&#xa0;" horiz-adv-x="675" />
<glyph unicode="!" horiz-adv-x="538" d="M115 1309q-9 131 155 131q162 0 154 -131l-62 -858q-6 -68 -92 -68q-88 0 -94 68zM121 125q0 72 31.5 107.5t117.5 35.5t118 -35.5t32 -107.5q0 -76 -32 -114t-118 -38q-88 0 -118.5 38t-30.5 114z" />
<glyph unicode="&#x22;" horiz-adv-x="878" d="M115 954l57 373q18 127 168 117q90 -6 118.5 -62.5t-3.5 -121.5l-133 -332q-31 -80 -119 -78q-102 6 -88 104zM492 954l57 373q18 127 168 117q90 -6 118.5 -62.5t-4.5 -121.5l-133 -332q-32 -80 -118 -78q-102 6 -88 104z" />
<glyph unicode="#" horiz-adv-x="1243" d="M55.5 516.5q20.5 108.5 104.5 108.5h114l35 192h-116q-86 0 -66 108.5t104 108.5h115l55 305q16 94 136 95q53 0 82.5 -22t19.5 -73l-55 -305h184l55 305q16 94 135 95q51 0 81 -21.5t22 -73.5l-53 -305h114q86 0 65.5 -108.5t-104.5 -108.5h-114l-35 -192h115 q88 0 67 -109q-16 -109 -104 -108h-115l-59 -332q-14 -94 -136 -94q-51 0 -80.5 21.5t-21.5 72.5l57 332h-182l-59 -332q-14 -94 -135 -94q-51 0 -81 21.5t-22 72.5l58 332h-115q-86 0 -65.5 108.5zM512 625h184l35 192h-184z" />
<glyph unicode="$" horiz-adv-x="1155" d="M33 354q-8 43 16.5 79t87.5 44q104 12 127 -82q29 -143 180 -188v430q-174 53 -277.5 146.5t-103.5 263.5q0 164 109 269t272 130v41q0 94 115 94q117 0 117 -94v-45q313 -57 364 -348q16 -98 -90 -105q-117 -8 -137 58q-45 131 -137 172v-379q88 -27 153.5 -56.5 t127 -78t94 -122t32.5 -167.5q0 -186 -106.5 -299t-300.5 -137v-64q0 -96 -117 -96q-115 0 -115 96v68q-162 25 -275.5 117t-135.5 253zM313 1049q2 -92 131 -146v322q-57 -18 -94 -64.5t-37 -111.5zM676 205q145 43 145 192q0 121 -145 174v-366z" />
<glyph unicode="%" horiz-adv-x="1341" d="M51 1116.5q0 143.5 69.5 231.5t213 88t213 -89.5t69.5 -230.5t-69.5 -230t-213 -89t-213 88t-69.5 231.5zM199.5 22.5q-13.5 28.5 7.5 67.5l719 1268q35 78 135 76q51 -2 74 -35t0 -80l-719 -1268q-43 -88 -160 -65q-43 8 -56.5 36.5zM250 1116q0 -145 84 -145t84 145 q0 29 -2 46.5t-8.5 45t-26 41t-48 13.5t-48 -13.5t-25.5 -41t-8 -45t-2 -46.5zM725 299q0 141 69.5 229t213 88t213 -88t69.5 -229t-69.5 -230t-213 -89t-213 88t-69.5 231zM924 299q0 -145 84 -145t84 145t-84 145q-29 0 -48.5 -13t-25.5 -41t-8 -45t-2 -46z" />
<glyph unicode="&#x26;" horiz-adv-x="1310" d="M72 428q0 246 301 434q-31 63 -49 113q-63 178 17.5 318.5t279.5 140.5q152 0 239.5 -76t77.5 -225q-10 -195 -252 -353q76 -117 213 -280q33 96 35 192q2 47 33.5 71.5t81.5 18.5q123 -16 116 -133q-12 -174 -96 -340q20 -23 85 -90t99 -104q37 -47 18.5 -80t-75.5 -49 q-107 -36 -170 30l-100 105q-152 -139 -365 -139q-209 -2 -348 118.5t-141 327.5zM344 428q0 -98 62.5 -161.5t164.5 -63.5q117 0 203 88q-168 195 -285 373q-145 -100 -145 -236zM528 1134q2 -42 14.5 -83t32.5 -68q125 92 115 178q-4 31 -23.5 50.5t-48.5 21.5 q-47 0 -69.5 -28.5t-20.5 -70.5z" />
<glyph unicode="'" horiz-adv-x="501" d="M115 954l55 373q20 127 168 117q90 -6 119.5 -62.5t-2.5 -121.5l-133 -332q-33 -80 -121 -78q-100 6 -86 104z" />
<glyph unicode="(" horiz-adv-x="565" d="M72 528q0 459 295 867q47 57 137 24q84 -33 28 -123q-207 -342 -206.5 -768t206.5 -768q55 -90 -28 -122q-90 -33 -137 24q-295 370 -295 866z" />
<glyph unicode=")" horiz-adv-x="565" d="M33 -240q205 338 205 768t-205 768q-55 92 26 123q91 35 138 -24q297 -371 297 -867q0 -500 -297 -866q-47 -59 -138 -24q-82 31 -26 122z" />
<glyph unicode="*" horiz-adv-x="1001" d="M82 1040.5q-21 49.5 4 104.5q23 49 60.5 65.5t84.5 -4.5l175 -82l-25 191q-6 53 26.5 88t90.5 35q59 0 93 -35t27 -88l-24 -191l172 80q55 23 96 3.5t60 -72.5q18 -55 -4.5 -100.5t-79.5 -55.5l-185 -35l127 -137q39 -43 33 -90t-53 -80q-43 -31 -92.5 -25t-77.5 56 l-92 166l-90 -168q-27 -49 -76 -56.5t-94 27.5q-47 35 -53.5 82t32.5 88l129 137l-186 37q-57 10 -78 59.5z" />
<glyph unicode="+" horiz-adv-x="1161" d="M72 709q0 115 78 114h317v316q0 80 113 80q114 0 114 -80v-316h316q80 0 80 -114q0 -113 -80 -113h-316v-317q0 -80 -114 -80q-113 0 -113 80v317h-317q-78 0 -78 113z" />
<glyph unicode="," horiz-adv-x="563" d="M94 -201l58 373q18 127 167 117q90 -6 119 -62.5t-4 -122.5l-133 -331q-35 -84 -119 -78q-102 6 -88 104z" />
<glyph unicode="-" horiz-adv-x="716" d="M72 535q0 115 78 114h415q80 0 80 -114q0 -113 -80 -113h-415q-78 0 -78 113z" />
<glyph unicode="." horiz-adv-x="575" d="M133 135q0 76 34 115t120 39q90 0 122.5 -38t32.5 -116q0 -80 -32.5 -121t-122.5 -41t-122 41t-32 121z" />
<glyph unicode="/" horiz-adv-x="1017" d="M23 -258l761 1612q39 78 136 76q53 -4 75.5 -36t-0.5 -79l-764 -1612q-41 -90 -159 -68q-90 16 -49 107z" />
<glyph unicode="0" horiz-adv-x="1323" d="M82 712.5q0 137.5 34 263.5t101.5 232.5t182 170t262 63.5t262 -63.5t182.5 -170t101.5 -232.5t33.5 -263.5t-33.5 -263t-101.5 -232t-182.5 -170t-262 -63.5t-262 63.5t-182 170t-101.5 232t-34 263zM362 712.5q0 -61.5 7.5 -123t27 -130t51 -120.5t87 -86t127.5 -34 q88 0 150 49t93 130t43.5 158t12.5 157t-12.5 156.5t-43.5 157.5t-93 130t-150 49q-72 0 -127.5 -33.5t-87 -86t-51 -121t-27 -130t-7.5 -123z" />
<glyph unicode="1" horiz-adv-x="763" d="M53 1126q-37 94 39 134l275 157q39 25 96 25q127 0 127 -94v-1264q0 -94 -127 -94t-127 94v1071q-23 -23 -64 -39l-110 -43q-33 -12 -63.5 3.5t-45.5 49.5z" />
<glyph unicode="2" horiz-adv-x="1085" d="M41 156q0 82 68 163q121 139 397 353q238 184 237 325q0 102 -59 158.5t-168 56.5q-168 0 -209 -172q-12 -51 -53 -71.5t-94 -14.5q-53 4 -78 29t-25 78q12 184 143.5 287.5t315.5 103.5q219 0 360.5 -107.5t141.5 -316.5q0 -147 -75 -255.5t-214 -223.5 q-39 -31 -111.5 -87t-130 -102.5t-100.5 -91.5q-6 -6 -5 -14t13 -8h543q86 0 86 -123t-86 -123h-760q-80 0 -108.5 33t-28.5 123z" />
<glyph unicode="3" horiz-adv-x="1085" d="M38.5 337q18.5 46 72.5 69q47 20 93 8.5t66 -56.5q39 -78 96.5 -111.5t147.5 -33.5q104 0 166.5 66.5t67.5 171.5q2 82 -32 136t-89.5 74.5t-126 27.5t-138.5 -5q-37 -4 -68.5 17.5t-43.5 58.5q-31 72 33 143l194 209q23 29 80 78h-414q-88 0 -88 121q0 123 88 123h705 q86 0 82 -123q-3 -50 -56 -111l-286 -282q-6 -6 -3 -14.5t13 -10.5q190 -6 308 -124t116 -298q0 -221 -145.5 -357.5t-368.5 -136.5q-348 4 -463 261q-25 53 -6.5 99z" />
<glyph unicode="4" horiz-adv-x="1155" d="M23 410q-2 55 32 110l520 826q39 59 81 82.5t108 23.5q166 0 166 -106v-820h84q80 0 80 -116q0 -115 -80 -115h-84v-219q0 -94 -135.5 -94t-135.5 94v219h-532q-98 0 -104 115zM313 526h346v553q-29 -72 -55 -114l-198 -316q-49 -82 -93 -123z" />
<glyph unicode="5" horiz-adv-x="1122" d="M86 244q-47 102 59 151q113 51 172 -39q47 -76 100.5 -111.5t139.5 -35.5q104 0 165.5 71.5t61.5 176.5q0 90 -43 153.5t-111.5 90t-152.5 25.5t-164 -30q-90 -33 -163.5 7t-59.5 141l53 405q14 109 45 147t117 38h553q86 0 86 -121q0 -125 -86 -125h-424 q-20 0 -26.5 -8.5t-12.5 -32.5l-24 -174q-6 -37 9 -47.5t48 -3.5q272 51 452.5 -64t178.5 -389q-2 -221 -142.5 -356.5t-363.5 -135.5q-160 0 -284 66t-183 201z" />
<glyph unicode="6" horiz-adv-x="1142" d="M82 623q0 301 174 537.5t457 303.5q119 27 176 -67q29 -49 11.5 -86t-73.5 -54q-154 -41 -276.5 -131t-171.5 -229q98 74 246 74q205 0 330.5 -140.5t125.5 -349.5q0 -213 -142 -357t-357 -144q-133 0 -233.5 52t-157 143t-83 202.5t-26.5 245.5zM360 469 q0 -104 58.5 -187t161.5 -83q111 0 170 81.5t59 194.5q0 258 -225 258q-109 0 -166.5 -77.5t-57.5 -186.5z" />
<glyph unicode="7" horiz-adv-x="966" d="M41 1311q0 123 86 123h713q86 0 86 -123q0 -33 -17 -82l-395 -1151q-33 -94 -168 -94t-102 94l385 1073q12 37 -25 37h-477q-86 0 -86 123z" />
<glyph unicode="8" horiz-adv-x="1193" d="M82 414q10 262 194 364q-131 111 -131 269q0 190 131.5 300.5t321.5 110.5t321.5 -110.5t131.5 -300.5q0 -154 -131 -269q96 -55 144 -152.5t48 -211.5q0 -211 -146.5 -328t-367.5 -117q-223 0 -368.5 117t-147.5 328zM362 426q0 -100 66 -165.5t170 -65.5t170 65.5 t66 165.5q0 102 -64.5 172t-171 70t-171.5 -70t-65 -172zM406 1047q4 -72 56 -118t136 -46t137 47t53 117q0 84 -53 130t-137 46t-137 -46.5t-55 -129.5z" />
<glyph unicode="9" horiz-adv-x="1128" d="M61 956q0 215 134.5 358.5t357.5 143.5q135 0 233.5 -50t153.5 -140t81 -201t26 -244q0 -313 -173.5 -546.5t-459.5 -303.5q-51 -18 -96.5 -4.5t-69.5 72.5q-47 117 51 147q168 51 276.5 132t161.5 225q-82 -61 -229 -62q-205 2 -326 135.5t-121 337.5zM326 961 q2 -119 56 -189t165 -70q100 0 163.5 78t63.5 187q0 115 -56 196.5t-161 81.5q-113 0 -172 -85t-59 -199z" />
<glyph unicode=":" horiz-adv-x="575" d="M133 135q0 76 34 115t122 39t120.5 -38t32.5 -116q0 -80 -32.5 -121t-120.5 -41q-92 0 -124 41t-32 121zM133 911q0 78 34 117t122 39t120.5 -39t32.5 -117q0 -80 -32.5 -120.5t-120.5 -40.5q-92 0 -124 40.5t-32 120.5z" />
<glyph unicode=";" horiz-adv-x="583" d="M94 -201l58 373q18 127 167 117q90 -6 119 -62.5t-4 -122.5l-133 -331q-35 -84 -121 -78q-100 6 -86 104zM129 911q0 78 34 117t122 39t120.5 -39t32.5 -117q0 -80 -32.5 -120.5t-120.5 -40.5q-92 0 -124 40.5t-32 120.5z" />
<glyph unicode="&#x3c;" horiz-adv-x="1034" d="M20.5 536.5q-0.5 96.5 104.5 147.5l704 338q129 61 132 -80q2 -53 -12.5 -78.5t-55.5 -46.5l-545 -280l545 -283q37 -20 53.5 -46t14.5 -77q-2 -141 -132 -80l-704 338q-104 51 -104.5 147.5z" />
<glyph unicode="=" horiz-adv-x="1161" d="M72 516q0 115 78 115h862q78 0 78 -115q0 -113 -78 -113h-862q-78 0 -78 113zM72 872q0 115 78 115h862q78 0 78 -115q0 -112 -78 -112h-862q-78 0 -78 112z" />
<glyph unicode="&#x3e;" horiz-adv-x="1034" d="M74 131q-2 51 14 77t53 46l547 283l-547 280q-41 20 -55 46t-12 79q6 141 131 80l704 -338q104 -49 104.5 -147.5t-104.5 -147.5l-704 -338q-125 -61 -131 80z" />
<glyph unicode="?" horiz-adv-x="993" d="M34 1162.5q-5 35.5 15 68.5q63 98 174 150.5t240 54.5q190 4 325 -99q164 -125 152 -329q-6 -104 -59.5 -180t-155.5 -164q-113 -92 -172 -215q-33 -66 -117 -56q-88 10 -80 88q6 66 47 136.5t65 97t97 104.5q98 102 99 199q2 90 -58.5 142t-152.5 52q-135 0 -230 -112 q-33 -39 -76 -38t-79 38q-29 27 -34 62.5zM311 125q0 72 33 107.5t117 35.5q86 0 117.5 -35.5t31.5 -107.5q0 -76 -31.5 -114t-117.5 -38q-88 0 -119 38t-31 114z" />
<glyph unicode="@" horiz-adv-x="1536" d="M72 705q0 299 207.5 523t513.5 224q276 0 475.5 -192.5t193.5 -477.5q-2 -111 -43 -216t-119 -169q-96 -80 -225 -73q-106 6 -145 98q-84 -92 -207 -96q-131 -2 -215 86t-88 225q-4 180 100.5 313t296.5 133h162q86 0 114.5 -47t18.5 -143l-31 -287q-6 -49 21.5 -65.5 t77.5 26.5q70 66 73 205q4 199 -128 333t-337 134q-209 -2 -353 -161.5t-144 -375.5q0 -219 152.5 -370.5t377.5 -151.5q182 0 363 82q41 16 74.5 0t50.5 -59q39 -104 -49 -146q-211 -94 -437 -94q-309 0 -530 212t-221 530zM651 721q-14 -66 3.5 -124t80.5 -56 q119 -1 139 200l13 117q4 23 -19 23h-49q-68 0 -111.5 -45t-56.5 -115z" />
<glyph unicode="A" horiz-adv-x="1236" d="M37 82l424 1270q35 102 157.5 102t157.5 -102l424 -1270q6 -18 6 -32q0 -30 -26 -44q-38 -20 -103 -20q-59 0 -96 18.5t-57 77.5l-80 246h-451l-80 -246q-20 -59 -57 -77.5t-96 -18.5q-41 0 -70 6t-48 28q-11 13 -11 32q0 13 6 30zM473 567h291l-98 299q-33 100 -48 197 q-14 -96 -47 -197z" />
<glyph unicode="B" horiz-adv-x="1228" d="M133 180v1073q0 104 54.5 142.5t146.5 38.5h348q193 0 307.5 -100.5t114.5 -291.5q0 -90 -40 -163.5t-106 -114.5q199 -96 199 -332q0 -195 -117.5 -313.5t-304.5 -118.5h-401q-92 0 -146.5 38t-54.5 142zM406 281q0 -35 34 -35h267q166 0 166 185q0 187 -191 187h-276 v-337zM406 864h247q82 0 124 43t42 119q0 162 -166 162h-213q-35 0 -34 -35v-289z" />
<glyph unicode="C" horiz-adv-x="1220" d="M72 716.5q0 739.5 583 739.5q236 0 361 -125t145 -332v-8q0 -39 -35 -63q-39 -26 -96 -27h-10q-116 0 -135 88q-25 119 -77 173.5t-165 54.5q-92 0 -153.5 -44.5t-89 -124t-38 -156.5t-10.5 -175q0 -96 10.5 -173t39 -157t90 -124t151.5 -44q111 0 163 59.5t83 170.5 q25 86 145 88q76 0 110 -29q25 -21 25 -60q0 -15 -4 -32q-35 -188 -163 -313.5t-359 -125.5q-571 0 -571 739.5z" />
<glyph unicode="D" horiz-adv-x="1255" d="M133 182v1071q0 104 54.5 142.5t146.5 38.5h282q145 0 258 -57.5t178.5 -159t98.5 -227.5t33 -273q0 -311 -140.5 -514t-427.5 -203h-282q-92 0 -146.5 38t-54.5 144zM403 283q0 -35 35 -35h178q82 0 141.5 44t90.5 116.5t44 149.5t13 159q0 113 -23.5 213t-92 179 t-173.5 79h-178q-35 0 -35 -35v-870z" />
<glyph unicode="E" horiz-adv-x="1054" d="M133 180v1073q0 104 54.5 142.5t146.5 38.5h563q86 0 86 -123t-86 -123h-457q-35 0 -34 -35v-289h415q86 0 86 -123t-86 -123h-415v-337q0 -35 34 -35h457q86 0 86 -123t-86 -123h-563q-92 0 -146.5 38t-54.5 142z" />
<glyph unicode="F" horiz-adv-x="1024" d="M133 78v1175q0 104 54.5 142.5t146.5 38.5h553q86 0 86 -123t-86 -123h-447q-35 0 -34 -35v-297h382q86 0 86 -123t-86 -123h-382v-532q0 -96 -136 -96q-137 0 -137 96z" />
<glyph unicode="G" horiz-adv-x="1273" d="M72 719q0 707 571 737q215 0 346 -96t166 -279q3 -17 3 -32q0 -91 -122 -91q-84 0 -118.5 17.5t-45.5 58.5q-25 92 -78 137.5t-151 45.5q-291 0 -291 -498q0 -500 291 -500q258 0 270 279q2 39 -10 53t-47 14h-158q-82 0 -82 117q0 115 82 115h291q106 0 146.5 -43 t44.5 -133q1 -25 1 -50q0 -108 -21 -200q-27 -113 -87.5 -202t-167 -139t-252.5 -50q-154 0 -267.5 57t-181 159.5t-100 233.5t-32.5 289z" />
<glyph unicode="H" horiz-adv-x="1269" d="M133 78v1268q0 96 135 96t135 -96v-490h461v490q0 96 135 96q138 0 138 -96v-1268q0 -96 -138 -96q-135 0 -135 96v532h-461v-532q0 -96 -135 -96t-135 96z" />
<glyph unicode="I" horiz-adv-x="538" d="M133 78v1270q0 94 135 94q138 0 138 -94v-1270q0 -96 -138 -96q-135 0 -135 96z" />
<glyph unicode="J" horiz-adv-x="868" d="M16 170q10 47 44 72q22 17 48 17q14 0 29 -5q76 -27 149 -27h19q158 2 158 189v932q0 94 135 94q137 0 137 -94v-979q0 -106 -40 -187.5t-106.5 -126.5t-151.5 -65q-65 -16 -132 -16q-21 0 -43 2q-90 6 -176 34q-75 26 -75 112q0 22 5 48z" />
<glyph unicode="K" horiz-adv-x="1185" d="M133 76v1272q0 94 137 94q135 0 136 -94v-445l378 430q60 67 106 93q32 17 77 18q22 0 47 -4q66 -12 89 -54q9 -16 9 -33q0 -28 -25 -57l-366 -415l446 -777q15 -30 15 -52q0 -20 -14 -34q-28 -28 -91 -30h-16q-139 0 -197 98l-334 582l-124 -140v-452q0 -94 -136 -94 q-137 0 -137 94z" />
<glyph unicode="L" horiz-adv-x="960" d="M133 182v1176q0 94 135 94q137 0 138 -94v-1075q-1 -35 32 -35h406q86 0 86 -125q0 -123 -86 -123h-510q-92 0 -146.5 38t-54.5 144z" />
<glyph unicode="M" horiz-adv-x="1439" d="M133 78v1268q0 98 129 98q78 0 115 -55q16 -23 102 -187t164 -315l78 -152q309 602 342 654q37 55 117 55q127 0 127 -98v-1268q0 -96 -131 -96q-133 0 -134 96v829q-12 -37 -75 -176l-158 -311q-25 -47 -88 -47q-66 0 -90 47l-156 311q-55 111 -78 176v-829 q0 -96 -133 -96q-131 0 -131 96z" />
<glyph unicode="N" horiz-adv-x="1318" d="M133 78v1270q0 94 141 94q109 0 146 -68l403 -684q59 -96 97 -184v842q0 94 133 94t133 -94v-1270q0 -96 -144 -96q-104 0 -145 67l-403 684q-55 94 -95 193v-848q0 -96 -133 -96t-133 96z" />
<glyph unicode="O" horiz-adv-x="1306" d="M72 716.5q0 739.5 581.5 739.5t581.5 -739.5t-581.5 -739.5t-581.5 739.5zM350 717q0 -498 303 -498t303 498q0 500 -303 500q-96 0 -159.5 -44.5t-93 -124t-40 -156.5t-10.5 -175z" />
<glyph unicode="P" horiz-adv-x="1179" d="M133 78v1175q0 104 54.5 142.5t146.5 38.5h362q186 0 309 -125t123 -320q0 -197 -121.5 -322.5t-310.5 -125.5h-290v-463q0 -96 -138 -96q-135 0 -135 96zM406 788h262q82 0 129 57.5t47 143.5q0 88 -46 143.5t-130 55.5h-228q-35 0 -34 -35v-365z" />
<glyph unicode="Q" horiz-adv-x="1306" d="M72 719q0 737 581.5 737t581.5 -737q0 -473 -229 -641l143 -182q24 -33 24 -58q0 -16 -11 -28q-25 -31 -103 -43q-20 -3 -38 -3q-95 0 -144 78l-91 148q-51 -10 -133 -10q-311 0 -446 193.5t-135 545.5zM350 719q0 -489 291 -500l-18 29q-17 26 -17 46q0 42 74 54 q19 3 37 3q71 0 112 -52l9 -12q118 114 118 427v5q0 98 -10 174t-39.5 155.5t-93 124t-160.5 44.5q-303 0 -303 -498z" />
<glyph unicode="R" horiz-adv-x="1249" d="M133 78v1175q0 104 54.5 142.5t146.5 38.5h360q188 0 311 -118t123 -312q0 -137 -70.5 -234.5t-178.5 -138.5q94 -68 159 -213q8 -20 39 -93t52.5 -119t50.5 -89q19 -29 19 -52q1 -26 -23 -46q-46 -37 -115 -37q-111 0 -150 53q-29 37 -54.5 94t-58 143t-48.5 125 q-39 86 -90.5 133.5t-133.5 47.5h-123v-500q0 -96 -135 -96t-135 96zM403 811h263q82 0 130 54.5t48 138.5q0 86 -46 135t-132 49h-228q-35 0 -35 -35v-342z" />
<glyph unicode="S" horiz-adv-x="1122" d="M35 348q-3 16 -3 31q0 77 91 98q22 5 44 5q31 0 59 -10q48 -18 67 -71q31 -90 96.5 -141t155.5 -51q102 0 168.5 50t66.5 153q0 41 -19.5 73.5t-40 51t-64.5 37t-64.5 24.5t-67.5 18q-98 27 -168.5 54.5t-145.5 77t-115 126t-40 179.5q0 186 138.5 295.5t324.5 109.5 q418 0 510 -342q3 -14 3 -26q-1 -31 -21 -55q-30 -34 -86 -40q-18 -2 -35 -2q-91 0 -117 66q-37 86 -91 125t-155 39q-82 0 -140 -41t-58 -127q0 -37 19.5 -68t40 -47t61 -33.5t59 -22.5t61.5 -16q82 -20 139.5 -39.5t127 -56.5t112.5 -80t73 -112.5t30 -155.5 q0 -211 -137.5 -332t-364.5 -121q-186 0 -330.5 96.5t-183.5 280.5z" />
<glyph unicode="T" horiz-adv-x="1024" d="M31 1311q0 123 86 123h790q86 0 86 -123t-86 -123h-260v-1110q0 -96 -135 -96q-53 0 -94 22.5t-41 73.5v1110h-260q-86 0 -86 123z" />
<glyph unicode="U" horiz-adv-x="1300" d="M133 516v832q0 94 135 94t135 -94v-856q0 -121 64.5 -195t181.5 -74t182.5 74t65.5 195v856q0 94 135 94t135 -94v-832q0 -274 -139 -406.5t-379 -132.5q-238 0 -377 132.5t-139 406.5z" />
<glyph unicode="V" horiz-adv-x="1146" d="M37 1348q-5 17 -5 30q0 28 20 42q32 22 83 22q45 0 70.5 -3t59.5 -25.5t46 -67.5l224 -789q25 -84 40 -182q20 111 41 180l226 791q12 45 45 67.5t59.5 25.5t71.5 3q48 0 78 -22q19 -15 20 -41q0 -14 -6 -31l-367 -1264q-31 -100 -168 -100q-135 0 -165 100z" />
<glyph unicode="W" horiz-adv-x="1714" d="M35 1339q-3 13 -3 24q0 33 26 53q36 26 87 26q145 0 166 -96l172 -771q33 -137 43 -192q23 141 37 192l166 771q23 96 125 96q106 0 125 -96l166 -771q18 -59 39 -192q4 33 43 192l178 771q20 96 164 96q51 0 87 -26q26 -19 26 -51q0 -12 -3 -26l-309 -1255 q-25 -100 -176 -100q-137 0 -162 100l-145 602q-23 84 -33 154q-6 -39 -31 -154l-145 -602q-25 -100 -164 -100q-150 0 -174 96z" />
<glyph unicode="X" horiz-adv-x="1110" d="M43 86l365 643l-347 614q-14 24 -14 42q0 20 18 33q33 24 89 24q84 0 123.5 -19.5t70.5 -76.5l207 -365l207 365q31 57 70.5 76.5t123.5 19.5q55 0 89 -24q19 -13 19 -34q0 -18 -13 -41l-349 -614l365 -643q13 -23 13 -41q0 -21 -19 -35q-35 -26 -90 -28h-12 q-142 0 -191 90l-213 397l-213 -397q-49 -90 -191 -90h-12q-55 2 -90 28q-19 14 -19 35q0 18 13 41z" />
<glyph unicode="Y" horiz-adv-x="1071" d="M24 1413q27 29 78 29q88 0 128 -19.5t71 -74.5l238 -437l235 437q31 55 76 74.5t131 19.5q49 0 69 -24q9 -10 9 -26q0 -22 -15 -55l-370 -655v-604q0 -96 -135 -96q-137 0 -138 96v604l-376 651q-15 26 -15 47q0 19 14 33z" />
<glyph unicode="Z" horiz-adv-x="1028" d="M31 121q0 70 30 121l488 809q51 86 88 137h-516q-86 0 -86 123t86 123h739q96 0 96 -121q0 -66 -30 -121l-482 -813q-47 -78 -92 -131h516q86 0 86 -125q0 -123 -86 -123h-741q-96 0 -96 121z" />
<glyph unicode="[" horiz-adv-x="573" d="M133 -193v1463q0 164 162 164h192q76 0 76 -95q0 -100 -78 -100h-96q-35 0 -35 -31v-1339q0 -31 35 -31h96q78 0 78 -100q0 -94 -76 -94h-192q-162 0 -162 163z" />
<glyph unicode="\" horiz-adv-x="1019" d="M22.5 1391.5q22.5 31.5 75.5 35.5q96 3 135 -75l764 -1612q41 -90 -51 -107q-119 -23 -160 68l-763 1612q-23 47 -0.5 78.5z" />
<glyph unicode="]" horiz-adv-x="575" d="M10 -262q0 100 78 100h98q33 0 33 31v1339q0 31 -33 31h-98q-78 0 -78 100q4 94 76 95h195q162 0 161 -164v-1463q0 -164 -161 -163h-195q-72 0 -76 94z" />
<glyph unicode="^" horiz-adv-x="1026" d="M74.5 807q-11.5 39 15.5 84l246 448q33 63 70.5 92t105.5 29q66 0 104.5 -28.5t73.5 -92.5l246 -448q27 -45 15.5 -84t-58.5 -49q-100 -23 -154 59l-227 369l-227 -369q-49 -82 -152 -59q-47 10 -58.5 49z" />
<glyph unicode="_" horiz-adv-x="1112" d="M10 -223q0 113 80 112h932q80 0 80 -112q0 -115 -80 -115h-932q-80 0 -80 115z" />
<glyph unicode="`" horiz-adv-x="452" d="M74.5 1384.5q7.5 34.5 58.5 45.5q20 4 82 4q82 0 113 -62l65 -151q31 -72 -49 -82q-74 -14 -119 35l-123 137q-35 39 -27.5 73.5z" />
<glyph unicode="a" horiz-adv-x="1085" d="M72 313q0 376 518 376q47 0 98 -3q2 182 -162 182q-41 0 -70.5 -2t-65.5 -13t-50 -17.5t-68 -28.5q-31 -13 -58 -13q-43 0 -73 35q-27 31 -27 74v13q4 52 48 77q160 96 368 97q190 0 311.5 -95.5t121.5 -296.5v-473q0 -39 8 -137q1 -7 1 -13q0 -41 -24 -59 q-26 -20 -80 -22q-53 0 -83.5 20.5t-53.5 69.5q-125 -106 -307 -107q-145 0 -248.5 92.5t-103.5 243.5zM348 313q2 -53 41 -83.5t103 -30.5q104 -1 157 83q42 66 42 155q0 23 -3 48q-25 5 -55 5q-21 0 -47 -3q-60 -6 -113 -17t-90 -52q-35 -39 -35 -98v-7z" />
<glyph unicode="b" horiz-adv-x="1198" d="M133 84v1266q0 98 137.5 98t137.5 -98v-338q31 31 104.5 54.5t136.5 23.5q436 0 436 -555q0 -258 -110.5 -408t-331.5 -150q-154 1 -252 95q-14 -90 -133 -90q-125 0 -125 102zM408 479q0 -109 51 -199t145 -90q195 0 195 345q0 342 -195 342q-70 0 -117 -51.5t-63 -117 t-16 -139.5v-90z" />
<glyph unicode="c" horiz-adv-x="1042" d="M72 530.5q0 550.5 469 550.5q174 0 287.5 -83t129.5 -222q2 -14 2 -26q0 -42 -22 -62q-28 -26 -98 -26q-102 2 -125 73q-20 70 -60.5 102.5t-113.5 32.5q-205 0 -205 -340t205 -340q123 0 180 134q29 72 131 75h9q57 -1 86 -25q23 -19 23 -52q0 -12 -3 -27 q-33 -145 -142.5 -230t-283.5 -85q-469 0 -469 550.5z" />
<glyph unicode="d" horiz-adv-x="1157" d="M72 535q0 555 446 555q131 0 232 -78v338q0 98 137 98t137 -98v-1266q0 -102 -125 -102q-119 0 -133 90q-94 -94 -248 -95q-229 0 -337.5 148.5t-108.5 409.5zM358 535q1 -345 191 -345q94 0 147.5 92.5t53.5 196.5v90q0 66 -17.5 131.5t-66 121t-117.5 55.5 q-190 0 -191 -342z" />
<glyph unicode="e" d="M72 537q0 113 26.5 209t80.5 173.5t148.5 122.5t219.5 45q207 1 325 -119q116 -118 115 -312v-7q-2 -100 -45 -138t-141 -38h-453q4 -121 51 -199q46 -77 156 -77h6q61 0 98 26.5t66 81.5q26 49 112 49q17 0 37 -2q60 -6 78 -40q10 -20 11 -40q0 -14 -5 -30 q-39 -129 -146 -200t-257 -71q-240 2 -360.5 162t-122.5 404zM356 664h336q39 0 37 45q-6 80 -52 124t-118 44q-88 0 -140 -57.5t-63 -155.5z" />
<glyph unicode="f" horiz-adv-x="702" d="M31 950.5q0 110.5 98 110.5h66v31q0 182 83.5 271t292.5 89q57 0 91 -8q72 -18 71 -121q-2 -59 -21 -84q-18 -22 -59 -22h-10q-12 2 -41 2q-133 -4 -133 -123v-35h90q98 0 98 -110.5t-98 -110.5h-90v-760q0 -98 -137 -98t-137 98v760h-66q-98 0 -98 110.5z" />
<glyph unicode="g" horiz-adv-x="1157" d="M72 528q0 557 448 557q148 0 246 -92q14 88 133 88q125 0 125 -102v-881q0 -205 -96.5 -328.5t-272.5 -158.5q-94 -19 -184 -19q-122 0 -238 35q-84 26 -84 125q0 18 3 37q6 55 38 81q19 16 45 16q15 0 31 -5q116 -42 213 -42q67 0 125 20q145 47 146 207 q-86 -76 -230 -76q-449 0 -448 538zM358 528q0 -325 194 -325h1q100 0 148.5 90t48.5 201v90q0 102 -51.5 195t-145.5 93q-195 0 -195 -344z" />
<glyph unicode="h" horiz-adv-x="1153" d="M133 80v1266q0 102 137.5 102t137.5 -100v-371q121 119 286 119q346 0 346 -367v-649q0 -98 -137 -98t-137 98v590q0 180 -121 180q-129 0 -183 -93t-54 -225v-452q0 -98 -137.5 -98t-137.5 98z" />
<glyph unicode="i" horiz-adv-x="565" d="M133 1313q0 68 33 101.5t117 33.5q82 0 115.5 -35t33.5 -100q0 -68 -31.5 -106t-117.5 -38q-88 0 -119 37t-31 107zM145 80v903q0 98 137.5 98t137.5 -98v-903q0 -98 -137.5 -98t-137.5 98z" />
<glyph unicode="j" horiz-adv-x="573" d="M-72 -215q0 61 31 89t96 28q98 0 99 121v960q0 98 137 98t137 -98v-1016q0 -174 -110 -258q-89 -69 -226 -69q-31 0 -65 4q-98 10 -99 141zM141 1312.5q0 67.5 33 101.5t117 34t116.5 -34t32.5 -101q0 -70 -30.5 -107t-118.5 -37q-86 0 -118 38t-32 105.5z" />
<glyph unicode="k" horiz-adv-x="1032" d="M133 82v1266q0 100 135 100q142 0 142 -100v-633l282 291q74 78 167 78q27 0 56 -7q63 -16 78 -58q4 -11 4 -22q0 -31 -30 -61l-287 -289l319 -543q12 -20 12 -38q0 -24 -22 -46q-39 -38 -104 -43q-13 -1 -25 -1q-50 0 -74 14q-30 18 -59 69l-229 404l-88 -90v-291 q0 -100 -142 -100q-135 0 -135 100z" />
<glyph unicode="l" horiz-adv-x="540" d="M133 80v1268q0 100 137.5 100t137.5 -100v-1268q0 -98 -137.5 -98t-137.5 98z" />
<glyph unicode="m" horiz-adv-x="1732" d="M133 80v905q0 98 121 98q119 0 131 -100l4 -25q110 138 305 138q197 0 289 -160q129 160 317 160q164 0 242 -92.5t78 -282.5v-641q0 -98 -137 -98t-137 98v590q0 180 -119 180q-115 0 -164 -82t-49 -199v-489q0 -98 -137 -98q-139 0 -140 98v575q0 195 -125 195 q-109 0 -156.5 -83t-47.5 -204v-483q0 -98 -137.5 -98t-137.5 98z" />
<glyph unicode="n" horiz-adv-x="1153" d="M133 80v905q0 96 121 96q61 0 93 -20.5t40 -77.5l4 -25q111 137 303 138q346 0 346 -367v-649q0 -98 -137 -98t-137 98v590q0 74 -29.5 127t-103.5 53q-119 0 -172 -81t-53 -204v-485q0 -98 -137.5 -98t-137.5 98z" />
<glyph unicode="o" horiz-adv-x="1081" d="M72 530.5q0 550.5 469 550.5t469 -550.5t-469 -550.5t-469 550.5zM338 530q0 -340 203 -340q204 0 204 340q0 68 -7 119t-25.5 106.5t-62.5 85t-109.5 29.5t-108.5 -29.5t-62.5 -85t-25.5 -106.5t-6 -119z" />
<glyph unicode="p" horiz-adv-x="1159" d="M133 -283v1264q0 104 125 104q119 0 133 -90q39 41 106.5 66.5t139.5 25.5q450 0 450 -553q0 -260 -111 -410q-112 -149 -339 -149q-147 0 -229 80v-338q0 -98 -137.5 -98t-137.5 98zM408 496q0 -117 51 -212.5t151 -95.5q188 0 189 344q0 342 -189 342q-96 0 -149 -89 t-53 -197v-92z" />
<glyph unicode="q" horiz-adv-x="1159" d="M72 532q0 557 450 558q72 0 139.5 -26t106.5 -67q14 84 133 84q125 0 125 -98v-1264q0 -100 -137 -100t-137 100v336q-78 -78 -230 -78q-227 0 -338.5 149.5t-111.5 405.5zM360 532q0 -342 189 -342q100 0 151.5 95.5t51.5 212.5v90q0 109 -53.5 199t-149.5 90 q-188 0 -189 -345z" />
<glyph unicode="r" horiz-adv-x="753" d="M133 80v905q0 96 115 96q104 0 129 -73l8 -27q72 100 205 113q15 1 28 1q58 1 84 -21q32 -26 31 -91q0 -53 -4 -78.5t-25.5 -45t-66.5 -21.5q-229 -10 -229 -252v-506q0 -98 -137.5 -98t-137.5 98z" />
<glyph unicode="s" horiz-adv-x="972" d="M78 762q0 152 120.5 240t280.5 88q307 0 387 -230q9 -25 9 -44q0 -22 -11 -36q-20 -28 -80 -37q-20 -2 -39 -2q-86 0 -124 54q-55 82 -144 82q-143 0 -143 -93q0 -84 203 -118q88 -16 149.5 -38t118.5 -59t87 -96t30 -141q0 -170 -120 -264.5t-290 -94.5q-326 0 -426 248 q-15 35 -15 63q0 71 99 89q18 3 34 3q81 0 111 -67q58 -116 193 -116h2q55 0 101 29.5t48 82.5q0 55 -50 81t-177 52q-76 16 -131 37t-110.5 56.5t-84 94t-28.5 136.5z" />
<glyph unicode="t" horiz-adv-x="784" d="M31 950.5q0 110.5 98 110.5h66v182q0 98 137 98t137 -98v-182h115q98 0 98 -110.5t-98 -110.5h-115v-475q0 -74 39 -107q29 -25 87 -25q19 0 42 3q14 2 26 2q45 0 65 -24q26 -30 26 -95q0 -86 -62 -115q-51 -22 -136 -22h-7q-193 0 -273.5 95t-80.5 271v492h-66 q-98 0 -98 110.5z" />
<glyph unicode="u" horiz-adv-x="1140" d="M113 336v647q0 98 137 98t137 -98v-588q0 -180 121 -180q119 0 172 78t53 199v491q0 98 137.5 98t137.5 -98v-899q0 -102 -125 -102q-104 0 -127 98l-6 22q-115 -133 -291 -133q-346 0 -346 367z" />
<glyph unicode="v" horiz-adv-x="1005" d="M37 985q-5 16 -5 29q0 30 26 46q36 22 98 23q145 0 174 -98l129 -457q10 -35 24.5 -104.5t20.5 -95.5q8 29 20.5 97.5t22.5 102.5l131 457q29 98 172 98q61 -1 98 -23q26 -16 26 -46q0 -13 -5 -29l-291 -905q-31 -98 -174 -98q-145 0 -176 98z" />
<glyph unicode="w" horiz-adv-x="1476" d="M37 983q-5 18 -5 32q0 31 22 45q34 22 96 21q142 0 167 -92l115 -459q16 -63 33 -172q12 78 37 166l121 465q20 80 114 80t115 -80l121 -465q25 -88 37 -166q16 109 32 172l117 459q24 92 159 92h11q59 1 92 -21q23 -15 23 -47q0 -13 -4 -30l-240 -881q-18 -63 -58 -91.5 t-124 -28.5q-133 0 -170 143l-72 270q-33 115 -39 180q-2 -23 -39 -180l-71 -270q-37 -143 -170 -143q-84 0 -124 28.5t-59 91.5z" />
<glyph unicode="x" horiz-adv-x="944" d="M36 37q-7 13 -7 29q0 30 26 67l271 420l-240 385q-21 33 -21 57q1 9 3 15q10 28 36.5 41.5t69.5 17.5q35 2 64.5 2t56.5 -14.5t41 -42.5l137 -258l135 258q23 41 62 50q27 6 66 6q17 0 36 -1q68 -7 94 -35q11 -12 11 -32q0 -26 -19 -64l-237 -385l268 -420q26 -37 26 -67 q1 -16 -7 -29q-20 -39 -93 -41q-26 -1 -49 -1h-22q-32 1 -63.5 17.5t-49.5 48.5l-158 293l-160 -293q-18 -33 -47.5 -49t-63.5 -17h-23q-24 0 -50 1q-73 2 -93 41z" />
<glyph unicode="y" horiz-adv-x="983" d="M45 924q-13 36 -13 63q0 75 101 84q25 3 46 3q98 0 120 -60l203 -563l192 563q20 60 116 60q22 0 48 -3q68 -6 86 -37q8 -14 8 -35q0 -28 -14 -69l-375 -1065q-78 -223 -304 -223q-42 0 -89 8q-84 14 -84 127q0 61 26 92q21 24 62 24q12 0 25 -2q9 -1 18 -1q37 0 69 20 q40 24 56 70l31 90z" />
<glyph unicode="z" horiz-adv-x="849" d="M31 111q0 72 28 116l336 502q49 74 88 111h-333q-98 0 -98 110.5t98 110.5h561q98 0 98 -111q0 -68 -37 -121l-328 -491q-51 -76 -100 -117h377q98 0 98 -110.5t-98 -110.5h-588q-102 0 -102 111z" />
<glyph unicode="{" horiz-adv-x="604" d="M72 538.5q0 84.5 55 102.5q59 18 59 127v354q0 158 90.5 237t249.5 75q68 0 68 -98.5t-66 -98.5q-68 -2 -93 -31.5t-25 -99.5v-344q0 -152 -99 -223q98 -61 99 -226v-344q0 -70 25.5 -99.5t92.5 -31.5q66 0 66 -98t-68 -98q-158 -4 -249 75.5t-91 237.5v352 q0 109 -59 129q-55 18 -55 102.5z" />
<glyph unicode="|" horiz-adv-x="466" d="M133 -311v1685q0 70 100.5 70t100.5 -70v-1685q0 -72 -100.5 -72t-100.5 72z" />
<glyph unicode="}" horiz-adv-x="604" d="M10 -260q0 98 68 98q66 2 91.5 32t25.5 99v344q0 162 98 226q-98 72 -98 223v344q0 70 -26 99.5t-91 31.5q-68 0 -68 98.5t68 98.5q160 4 250 -75t90 -237v-354q0 -109 59 -127q55 -18 55 -102t-55 -103q-59 -20 -59 -129v-352q0 -158 -91 -237.5t-249 -75.5 q-68 0 -68 98z" />
<glyph unicode="~" horiz-adv-x="1157" d="M72 707q106 135 256 157q129 16 295 -51q100 -43 172 -43q86 0 149 55q70 61 137 -6q51 -47 -2 -119q-93 -132 -243 -155q-127 -16 -293 53q-104 41 -172 41q-82 4 -150 -55q-72 -61 -135 2q-63 57 -14 121z" />
<glyph unicode="&#xad;" horiz-adv-x="716" d="M72 535q0 115 78 114h415q80 0 80 -114q0 -113 -80 -113h-415q-78 0 -78 113z" />
<glyph unicode="&#x401;" horiz-adv-x="1054" d="M133 180v1073q0 104 54.5 142.5t146.5 38.5h563q86 0 86 -123t-86 -123h-457q-35 0 -34 -35v-289h415q86 0 86 -123t-86 -123h-415v-337q0 -35 34 -35h457q86 0 86 -123t-86 -123h-563q-92 0 -146.5 38t-54.5 142zM281 1650.5q0 57.5 24.5 85t92 27.5t92 -27.5t24.5 -85 t-24.5 -87t-92 -29.5t-92 29.5t-24.5 87zM618 1650.5q0 57.5 24.5 85t92.5 27.5q66 0 91.5 -28.5t25.5 -83.5q0 -57 -24.5 -87t-92 -30t-92.5 29.5t-25 87z" />
<glyph unicode="&#x402;" horiz-adv-x="1515" d="M0 1313q0 121 86 121h795q84 0 84 -121q0 -125 -84 -125h-265v-316q158 80 320 80q221 4 369.5 -126t146.5 -377q-4 -211 -142.5 -341.5t-330.5 -130.5q-170 0 -264 68q-70 49 -31 133q16 37 50 49.5t87 -10.5q57 -31 137 -22q119 4 182.5 75.5t63.5 190.5 q0 123 -70.5 195.5t-191.5 76.5q-176 6 -326 -78v-579q0 -92 -133 -92q-137 0 -137 92v1112h-260q-86 0 -86 125z" />
<glyph unicode="&#x403;" horiz-adv-x="929" d="M133 76v1177q0 109 52.5 145t148.5 36h479q86 0 86 -121q0 -125 -86 -125h-375q-33 0 -32 -35v-1077q0 -92 -136 -92q-137 0 -137 92zM428 1610l66 159q31 72 114 68q41 0 99 -8q51 -12 58 -46t-28 -73l-129 -143q-53 -55 -131 -35q-76 15 -49 78z" />
<glyph unicode="&#x404;" horiz-adv-x="1249" d="M72 717q0 172 26.5 301t91 231.5t180 154.5t283.5 52q248 0 384.5 -125t158.5 -336q6 -47 -35 -74.5t-104 -23.5q-70 2 -104.5 20.5t-47.5 69.5q-27 121 -81 175.5t-171 54.5q-254 0 -284 -349h374q86 0 86 -122.5t-86 -122.5h-378q4 -84 18 -148.5t44 -125t87 -94.5 t139 -36q203 -6 246 213q12 55 50 79t110 26q76 0 110.5 -29t26.5 -92q-23 -201 -159 -320t-384 -119q-168 0 -284.5 53.5t-180 156t-90 230.5t-26.5 300z" />
<glyph unicode="&#x405;" horiz-adv-x="1122" d="M35 348q-20 104 88 129q55 12 103.5 -5.5t66.5 -70.5q31 -90 96.5 -141t155.5 -51q102 0 168.5 50t66.5 153q0 41 -19.5 73.5t-40 51t-64.5 37t-64.5 24.5t-67.5 18q-98 27 -168.5 54.5t-145.5 77t-115 126t-40 179.5q0 186 138.5 295.5t324.5 109.5q418 0 510 -342 q12 -47 -17.5 -81t-86.5 -40q-121 -14 -152 64q-37 86 -91 125t-155 39q-82 0 -140 -41t-58 -127q0 -37 19.5 -68t40 -47t61 -33.5t59 -22.5t61.5 -16q82 -20 139.5 -39.5t127 -56.5t112.5 -80t73 -112.5t30 -155.5q0 -211 -137.5 -332t-364.5 -121q-186 0 -330.5 96.5 t-183.5 280.5z" />
<glyph unicode="&#x406;" horiz-adv-x="538" d="M133 78v1270q0 94 135 94q138 0 138 -94v-1270q0 -96 -138 -96q-135 0 -135 96z" />
<glyph unicode="&#x407;" horiz-adv-x="589" d="M10 1650.5q0 57.5 24.5 85t92.5 27.5q66 0 91.5 -28.5t25.5 -83.5q0 -57 -24.5 -87t-92.5 -30t-92.5 29.5t-24.5 87zM160 78v1268q0 96 135 96t135 -96v-1268q0 -96 -135 -96t-135 96zM346 1650.5q0 57.5 24.5 85t92 27.5t92.5 -27.5t25 -85t-25 -87t-92.5 -29.5 t-92 29.5t-24.5 87z" />
<glyph unicode="&#x408;" horiz-adv-x="868" d="M16 170q10 47 44 72.5t77 11.5q86 -31 168 -27q158 2 158 189v932q0 94 135 94q137 0 137 -94v-979q0 -106 -40 -187.5t-106.5 -126.5t-151.5 -65.5t-175 -14t-176 34.5q-94 33 -70 160z" />
<glyph unicode="&#x409;" horiz-adv-x="1886" d="M23 100q-8 109 71 117q84 14 99 143q18 156 33.5 495t21.5 390q12 104 70.5 146.5t158.5 42.5h426q92 0 145.5 -37t53.5 -144v-360h291q190 0 311 -126t121 -323q0 -195 -122 -319.5t-310 -124.5h-361q-92 0 -146.5 38t-54.5 144v971q0 35 -34 35h-254q-33 0 -33 -35 q-4 -55 -14.5 -229t-23.5 -342t-34 -293q-25 -158 -90 -230.5t-194 -70.5q-129 0 -131 112zM1102 283q0 -33 37 -33h225q86 0 133 52t47 142q0 86 -49 143.5t-131 57.5h-262v-362z" />
<glyph unicode="&#x40a;" horiz-adv-x="1927" d="M133 76v1272q0 96 137 96q135 0 136 -96v-465h460v465q0 96 138 96q135 0 135 -96v-465h291q188 0 312 -122t124 -316.5t-125 -319.5t-311 -125h-363q-92 0 -146.5 38t-54.5 144v457h-460v-563q0 -92 -136 -92q-137 0 -137 92zM1139 283q0 -33 35 -33h229q84 0 130 53 t46 141q0 86 -48 140.5t-128 54.5h-264v-356z" />
<glyph unicode="&#x40b;" horiz-adv-x="1527" d="M0 1313q0 121 86 121h793q88 0 88 -121q0 -125 -88 -125h-261v-316q150 80 320 80q238 6 373 -120.5t135 -356.5v-399q0 -92 -135 -92t-135 92v405q0 254 -232 262q-160 6 -326 -88v-579q0 -92 -133 -92q-137 0 -137 92v1112h-262q-86 0 -86 125z" />
<glyph unicode="&#x40c;" horiz-adv-x="1161" d="M133 76v1272q0 96 135 96t135 -96v-459q156 0 236 139q23 41 78 158t78 151q43 63 74.5 85t107.5 22q82 0 110.5 -30t-8.5 -87q-23 -35 -80 -152.5t-98 -189.5q-31 -49 -48 -75.5t-52 -61.5t-74 -51q133 -39 213 -224q31 -76 85 -244.5t79 -217.5q33 -70 -1 -96.5 t-124 -26.5q-63 0 -94 17.5t-51 60.5q-37 78 -79 227t-61 201q-66 188 -291 161v-579q0 -92 -135 -92t-135 92zM485 1610l70 159q31 72 113 68q49 0 94 -8q55 -12 62 -46t-31 -73l-127 -143q-47 -57 -127 -35q-81 15 -54 78z" />
<glyph unicode="&#x40e;" d="M33 1329q-27 51 5 80t91 33q82 2 117 -18.5t61 -77.5l250 -525l203 525q23 57 54.5 76.5t111.5 19.5q57 -2 90.5 -23.5t15.5 -72.5l-434 -1127q-88 -233 -254 -233q-70 0 -106.5 26.5t-38.5 102.5q-2 92 77 104q31 4 46.5 18.5t33.5 61.5l80 203zM258 1653q-35 80 21 114 q61 39 104 -4q74 -76 174 -75q102 0 176 75q20 20 49 22.5t56 -16.5q55 -37 20 -116q-29 -59 -109.5 -106.5t-191.5 -47.5t-191.5 47t-107.5 107z" />
<glyph unicode="&#x40f;" horiz-adv-x="1255" d="M133 182v1178q0 94 135 94t135 -94v-1077q0 -33 33 -33h381q33 0 33 33v1077q0 94 137 94q135 0 135 -94v-1178q0 -106 -54 -144t-148 -38h-181v-295q0 -78 -110 -78q-117 0 -117 78v295h-178q-92 0 -146.5 38t-54.5 144z" />
<glyph unicode="&#x410;" horiz-adv-x="1236" d="M37 82l424 1270q35 102 157.5 102t157.5 -102l424 -1270q18 -55 -19.5 -75.5t-103.5 -20.5q-59 0 -96 18.5t-57 77.5l-80 246h-451l-80 -246q-20 -59 -57 -77.5t-96 -18.5q-41 0 -70 6t-48 28.5t-5 61.5zM473 567h291l-98 299q-33 100 -48 197q-14 -96 -47 -197z" />
<glyph unicode="&#x411;" horiz-adv-x="1153" d="M133 180v1073q0 104 54.5 142.5t146.5 38.5h590q86 0 86 -123t-86 -123h-484q-35 0 -34 -35v-289h276q188 0 304 -117.5t116 -314.5q0 -195 -117 -313.5t-303 -118.5h-348q-92 0 -146.5 38t-54.5 142zM406 281q0 -35 34 -35h213q166 0 166 186q0 88 -42 137t-124 49h-247 v-337z" />
<glyph unicode="&#x412;" horiz-adv-x="1228" d="M133 180v1073q0 104 54.5 142.5t146.5 38.5h348q193 0 307.5 -100.5t114.5 -291.5q0 -90 -40 -163.5t-106 -114.5q199 -96 199 -332q0 -195 -117.5 -313.5t-304.5 -118.5h-401q-92 0 -146.5 38t-54.5 142zM406 281q0 -35 34 -35h267q166 0 165.5 186t-190.5 186h-276 v-337zM406 864h247q82 0 124 43t42 119q0 162 -166 162h-213q-35 0 -34 -35v-289z" />
<glyph unicode="&#x413;" horiz-adv-x="907" d="M133 78v1175q0 104 54.5 142.5t146.5 38.5h477q86 0 86 -123t-86 -123h-373q-35 0 -35 -35v-1075q0 -96 -135 -96t-135 96z" />
<glyph unicode="&#x414;" horiz-adv-x="1318" d="M0 66q0 117 98 167q53 29 78 129.5t41 280.5q6 90 27 610q6 106 60 143.5t145 37.5h479q94 0 147 -37t53 -144v-1009q74 -2 117 -40t43 -138v-281q0 -94 -129 -94q-127 0 -127 94v178q0 37 -33 37h-708q-37 0 -37 -37v-178q0 -94 -127 -94t-127 94v281zM422 244h438v907 q0 35 -33 35h-276q-33 0 -37 -35q-8 -258 -27 -578q-18 -245 -65 -329z" />
<glyph unicode="&#x415;" horiz-adv-x="1054" d="M133 180v1073q0 104 54.5 142.5t146.5 38.5h563q86 0 86 -123t-86 -123h-457q-35 0 -34 -35v-289h415q86 0 86 -123t-86 -123h-415v-337q0 -35 34 -35h457q86 0 86 -123t-86 -123h-563q-92 0 -146.5 38t-54.5 142z" />
<glyph unicode="&#x416;" horiz-adv-x="1599" d="M56 1408q32 34 116 34q76 0 108.5 -21.5t71.5 -83.5q16 -29 55 -122t60 -134q33 -63 51.5 -91.5t56 -57.5t93.5 -37v451q0 96 133 96t133 -96v-451q53 8 91 37t56.5 57.5t51.5 91.5q20 41 59 134.5t55 121.5q41 61 73 83t107 22q82 0 114 -34t-5 -95q-33 -53 -95.5 -181 t-94.5 -184q-29 -45 -44.5 -67.5t-44 -48t-65.5 -41.5q137 -61 207 -230q33 -80 68.5 -233.5t60.5 -225.5q23 -63 -6 -88.5t-105 -27.5t-106.5 19.5t-55.5 84.5q-14 35 -50 194.5t-62 225.5q-55 137 -209 145v-577q0 -96 -133 -96t-133 96v577q-154 -6 -209 -145 q-27 -66 -64 -225.5t-51 -194.5q-25 -63 -55.5 -84.5t-106.5 -19.5q-74 2 -103.5 27.5t-6.5 88.5q27 74 63.5 226.5t69.5 232.5q70 170 205 230q-82 37 -154 157q-37 57 -99.5 185.5t-95.5 179.5q-37 61 -5 95z" />
<glyph unicode="&#x417;" horiz-adv-x="1132" d="M53 371q-2 45 27 73.5t78 36.5q128 25 151 -65q51 -199 244 -199q96 0 161.5 55.5t65.5 139.5q0 125 -72.5 168t-211.5 43q-86 0 -86 125q0 115 92 122q242 8 241 191q0 78 -52 120t-142 42q-104 0 -154.5 -40t-62.5 -126q-8 -43 -53.5 -61.5t-100.5 -10.5q-55 6 -87 39 t-25 76q23 174 145.5 268t335.5 94q195 0 335 -98t142 -295q0 -207 -190 -305q111 -43 170 -139.5t55 -214.5q-6 -209 -141.5 -322t-372.5 -113q-190 0 -334.5 105.5t-157.5 290.5z" />
<glyph unicode="&#x418;" horiz-adv-x="1286" d="M133 78v1268q0 96 131 96q135 0 135 -96v-861q18 51 78 160l412 717q45 80 139 80q125 0 125 -96v-1268q0 -96 -129 -96q-135 0 -135 96v848q-29 -70 -78 -162l-410 -711q-41 -72 -129 -71q-139 0 -139 96z" />
<glyph unicode="&#x419;" horiz-adv-x="1286" d="M133 78v1268q0 96 131 96q133 0 133 -96v-861q29 72 80 160l412 717q45 80 137 80q127 0 127 -96v-1268q0 -96 -129 -96q-135 0 -135 96v848q-31 -80 -80 -162l-408 -711q-41 -72 -131 -71q-137 0 -137 96zM350 1665q-35 80 21 115q61 39 104 -4q74 -76 174 -76 q102 0 176 76q20 20 49 22t56 -16q55 -37 20 -117q-29 -59 -109.5 -106.5t-191 -47.5t-191.5 47.5t-108 106.5z" />
<glyph unicode="&#x41a;" horiz-adv-x="1159" d="M133 78v1268q0 96 135 96q138 0 138 -96v-455q156 0 233 135q25 43 79 160t77 151q43 63 74.5 84t107.5 21q84 0 112.5 -30t-8.5 -89q-25 -37 -84 -155.5t-98 -184.5q-88 -147 -170 -186q127 -39 211 -226q35 -80 86 -246.5t76 -215.5q61 -123 -121 -123q-63 0 -95 18.5 t-52 63.5q-39 80 -82 234.5t-58 193.5q-63 178 -288 161v-579q0 -96 -138 -96q-135 0 -135 96z" />
<glyph unicode="&#x41b;" horiz-adv-x="1234" d="M23 98q-4 106 69 121q84 12 96 141q20 158 37 497t23 386q25 190 229 191h424q94 0 147.5 -37t53.5 -142v-1179q0 -94 -135.5 -94t-135.5 94v1077q0 35 -34 35h-254q-31 0 -37 -35q-4 -49 -13.5 -229.5t-22.5 -346t-32 -290.5q-25 -156 -91 -229.5t-193 -71.5 q-125 0 -131 112z" />
<glyph unicode="&#x41c;" horiz-adv-x="1439" d="M133 78v1268q0 98 129 98q78 0 115 -55q16 -23 102 -187t164 -315l78 -152q309 602 342 654q37 55 117 55q127 0 127 -98v-1268q0 -96 -131 -96q-133 0 -134 96v829q-12 -37 -75 -176l-158 -311q-25 -47 -88 -47q-66 0 -90 47l-156 311q-55 111 -78 176v-829 q0 -96 -133 -96q-131 0 -131 96z" />
<glyph unicode="&#x41d;" horiz-adv-x="1269" d="M133 78v1268q0 96 135 96t135 -96v-490h461v490q0 96 135 96q138 0 138 -96v-1268q0 -96 -138 -96q-135 0 -135 96v532h-461v-532q0 -96 -135 -96t-135 96z" />
<glyph unicode="&#x41e;" horiz-adv-x="1306" d="M72 716.5q0 739.5 581.5 739.5t581.5 -739.5t-581.5 -739.5t-581.5 739.5zM350 717q0 -498 303 -498t303 498q0 500 -303 500q-96 0 -159.5 -44.5t-93 -124t-40 -156.5t-10.5 -175z" />
<glyph unicode="&#x41f;" horiz-adv-x="1255" d="M133 78v1175q0 104 54.5 142.5t146.5 38.5h588q92 0 146 -38t54 -143v-1175q0 -96 -135 -96q-137 0 -137 96v1075q0 35 -33 35h-379q-35 0 -35 -35v-1075q0 -96 -135 -96t-135 96z" />
<glyph unicode="&#x420;" horiz-adv-x="1179" d="M133 78v1175q0 104 54.5 142.5t146.5 38.5h362q186 0 309 -125t123 -320q0 -197 -121.5 -322.5t-310.5 -125.5h-290v-463q0 -96 -138 -96q-135 0 -135 96zM406 788h262q82 0 129 57.5t47 143.5q0 88 -46 143.5t-130 55.5h-228q-35 0 -34 -35v-365z" />
<glyph unicode="&#x421;" horiz-adv-x="1220" d="M72 716.5q0 739.5 583 739.5q236 0 361 -125t145 -332q4 -45 -35 -71.5t-96 -26.5q-125 -4 -145 88q-25 119 -77 173.5t-165 54.5q-92 0 -153.5 -44.5t-89 -124t-38 -156.5t-10.5 -175q0 -96 10.5 -173t39 -157t90 -124t151.5 -44q111 0 163 59.5t83 170.5q25 86 145 88 q76 0 110 -29t21 -92q-35 -188 -163 -313.5t-359 -125.5q-571 0 -571 739.5z" />
<glyph unicode="&#x422;" horiz-adv-x="1024" d="M31 1311q0 123 86 123h790q86 0 86 -123t-86 -123h-260v-1110q0 -96 -135 -96q-53 0 -94 22.5t-41 73.5v1110h-260q-86 0 -86 123z" />
<glyph unicode="&#x423;" d="M33 1329q-27 51 5 80t91 33q82 2 117 -18.5t61 -77.5l250 -525l203 525q23 57 54.5 76.5t111.5 19.5q57 -2 90.5 -23.5t15.5 -72.5l-434 -1127q-88 -233 -254 -233q-70 0 -106.5 26.5t-38.5 102.5q-2 92 77 104q31 4 46.5 18.5t33.5 61.5l80 203z" />
<glyph unicode="&#x424;" horiz-adv-x="1521" d="M61 707q0 236 149.5 406.5t416.5 193.5v86q0 92 133 92q135 0 135 -92v-86q266 -23 415.5 -191t149.5 -401q0 -229 -153.5 -396t-411.5 -188v-82q0 -94 -135 -94q-133 0 -133 94v82q-258 20 -412 184t-154 392zM332 706.5q0 -155.5 80 -261t215 -119.5v776 q-133 -16 -214 -128t-81 -267.5zM895 326q137 14 216 122.5t79 266.5q0 154 -80 262t-215 125v-776z" />
<glyph unicode="&#x425;" horiz-adv-x="1110" d="M43 86l365 643l-347 614q-29 51 4 75t89 24q84 0 123.5 -19.5t70.5 -76.5l207 -365l207 365q31 57 70.5 76.5t123.5 19.5q55 0 89 -23.5t6 -75.5l-349 -614l365 -643q29 -51 -6 -76.5t-90 -27.5q-152 -4 -203 90l-213 397l-213 -397q-51 -94 -203 -90q-55 2 -90 27.5 t-6 76.5z" />
<glyph unicode="&#x426;" horiz-adv-x="1339" d="M133 180v1178q0 94 135 94q137 0 138 -94v-1077q0 -35 32 -35h436v1100q0 96 135.5 96t135.5 -96v-1100q80 -2 122 -40t42 -140v-279q0 -94 -129 -94q-125 0 -125 94v178q0 35 -33 35h-688q-92 0 -146.5 38t-54.5 142z" />
<glyph unicode="&#x427;" horiz-adv-x="1177" d="M92 842v504q0 96 135 96t135 -96v-474q0 -164 185 -163q121 0 225 49v588q0 96 135 96q137 0 137 -96v-1268q0 -96 -137 -96q-135 0 -135 96v426q-133 -43 -262 -43q-188 0 -303 99t-115 282z" />
<glyph unicode="&#x428;" horiz-adv-x="1861" d="M133 180v1178q0 94 135 94t135 -94v-1077q0 -35 35 -35h357v1100q0 96 135 96t135 -96v-1100h356q35 0 35 35v1077q0 94 135 94q137 0 138 -94v-1178q0 -104 -54.5 -142t-146.5 -38h-1194q-92 0 -146.5 38t-54.5 142z" />
<glyph unicode="&#x429;" horiz-adv-x="1923" d="M133 180v1178q0 94 135 94q137 0 138 -94v-1077q0 -35 32 -35h357v1100q0 96 135 96q137 0 137 -96v-1100h389v1100q0 96 137 96q136 0 136 -96v-1100q80 -2 121.5 -41t41.5 -139v-279q0 -94 -129 -94q-127 0 -127 94v178q0 35 -34 35h-1268q-92 0 -146.5 38t-54.5 142z " />
<glyph unicode="&#x42a;" horiz-adv-x="1333" d="M0 1305q0 129 94 129h273q109 0 145.5 -46.5t36.5 -136.5v-358h289q188 0 311 -126t123 -323q0 -195 -124 -319.5t-310 -124.5h-361q-92 0 -146.5 38t-54.5 142v965q0 33 -34 33h-148q-94 0 -94 127zM549 281q0 -35 33 -35h227q84 0 131 55t47 143q0 86 -47 144.5 t-131 58.5h-260v-366z" />
<glyph unicode="&#x42b;" horiz-adv-x="1652" d="M133 180v1178q0 94 137 94q135 0 136 -94v-465h258q188 0 311 -126t123 -323q0 -195 -124 -319.5t-310 -124.5h-330q-92 0 -146.5 38t-54.5 142zM406 281q0 -35 34 -35h195q84 0 131 55t47 143q0 86 -48 144.5t-130 58.5h-229v-366zM1249 78v1268q0 96 135.5 96 t135.5 -96v-1268q0 -96 -135.5 -96t-135.5 96z" />
<glyph unicode="&#x42c;" horiz-adv-x="1189" d="M133 180v1178q0 94 135 94t135 -94v-465h291q188 0 311 -126t123 -323q0 -195 -123.5 -319.5t-310.5 -124.5h-360q-92 0 -146.5 38t-54.5 142zM403 281q0 -35 35 -35h228q84 0 131 55t47 143q0 86 -48 144.5t-130 58.5h-263v-366z" />
<glyph unicode="&#x42d;" horiz-adv-x="1249" d="M53 416q-8 63 27 92t110 29q72 -2 110 -26t50 -79q45 -219 248 -213q270 4 287 404h-377q-86 0 -86 122.5t86 122.5h375q-31 348 -285 349q-117 0 -172 -55.5t-82 -174.5q-10 -51 -46 -69.5t-103 -20.5q-63 -4 -105.5 23.5t-36.5 74.5q23 211 160 336t385 125 q166 0 281.5 -52t180 -154.5t91.5 -231.5t27 -301t-27 -300t-90.5 -230.5t-179 -156t-283.5 -53.5q-250 0 -386 119t-159 320z" />
<glyph unicode="&#x42e;" horiz-adv-x="1816" d="M133 78v1268q0 96 137 96q135 0 136 -96v-478h182q55 588 575 588q582 0 582 -739.5t-582 -739.5q-545 0 -579 646h-178v-545q0 -96 -136 -96q-137 0 -137 96zM860 717q0 -498 303 -498t303 498q0 500 -303 500q-96 0 -159.5 -44.5t-93 -124t-40 -156.5t-10.5 -175z" />
<glyph unicode="&#x42f;" horiz-adv-x="1228" d="M49 117q23 35 44.5 77t32.5 67.5t34.5 82.5t32.5 74q59 139 157 213q-106 41 -177 138t-71 235q0 195 122 312.5t311 117.5h360q92 0 146.5 -38t54.5 -143v-1175q0 -96 -135.5 -96t-135.5 96v500h-123q-143 -1 -221 -183q-18 -43 -50 -125t-58.5 -140t-55.5 -95 q-43 -57 -149 -53q-72 2 -116 36.5t-3 98.5zM385 1004q0 -84 48 -138.5t130 -54.5h262v342q0 35 -34 35h-228q-86 0 -132 -49t-46 -135z" />
<glyph unicode="&#x430;" horiz-adv-x="1085" d="M72 313q0 410 616 373q2 182 -162 182q-41 0 -70.5 -2t-65.5 -13t-50 -17.5t-68 -28.5q-82 -35 -131 22q-31 35 -26.5 86.5t47.5 77.5q160 96 368 97q190 0 311.5 -95.5t121.5 -296.5v-473q0 -39 8 -137q4 -51 -22.5 -71.5t-80.5 -22.5q-53 0 -83.5 20.5t-53.5 69.5 q-125 -106 -307 -107q-145 0 -248.5 92.5t-103.5 243.5zM348 313q2 -53 41 -83.5t103 -30.5q104 0 157 83.5t39 202.5q-43 8 -102.5 2t-112.5 -17t-90 -52t-35 -105z" />
<glyph unicode="&#x431;" horiz-adv-x="1148" d="M94 545q-23 647 430 868q33 16 289 127q47 25 92 11.5t68 -62.5q53 -119 -47 -178q-35 -20 -80 -38t-105.5 -37t-91.5 -30q-201 -76 -254 -207q33 33 106.5 51.5t127.5 18.5q449 0 448 -539q0 -254 -114.5 -402t-362.5 -148q-252 0 -375 151.5t-131 413.5zM371 530 q0 -57 10 -111t32.5 -108.5t68.5 -86t110 -31.5q209 1 209 337q0 317 -217 318q-213 0 -213 -318z" />
<glyph unicode="&#x432;" horiz-adv-x="1089" d="M133 201v661q0 199 182 199h322q162 0 258 -69.5t96 -219.5q0 -53 -30.5 -113.5t-81.5 -80.5q139 -59 139 -242q0 -166 -105.5 -251t-285.5 -85h-312q-182 0 -182 201zM408 252q0 -39 24 -39h191q47 0 83.5 33t36.5 90q0 55 -36.5 88t-83.5 33h-215v-205zM408 668h210 q41 0 70 22.5t29 67.5q0 92 -123 92h-150q-37 0 -36 -41v-141z" />
<glyph unicode="&#x433;" horiz-adv-x="825" d="M133 78v784q0 199 182 199h383q96 0 96.5 -110.5t-96.5 -110.5h-254q-37 0 -36 -41v-721q0 -98 -137.5 -98t-137.5 98z" />
<glyph unicode="&#x434;" horiz-adv-x="1120" d="M10 61q0 94 66 144q66 43 86 153q14 74 21 174.5t10.5 201t5.5 128.5q10 199 188 199h397q186 0 187 -201v-647q119 -16 119 -152v-206q0 -100 -117 -101q-121 0 -121 101v104q0 41 -35 41h-520q-37 0 -37 -41v-104q0 -100 -121 -101q-129 0 -129 101v206zM383 221h319 v576q0 43 -36 43h-177q-39 0 -38 -43q0 -6 -9.5 -165t-24 -266.5t-34.5 -144.5z" />
<glyph unicode="&#x435;" d="M72 537q0 113 26.5 209t80.5 173.5t148.5 122.5t219.5 45q207 0 324.5 -119.5t115.5 -318.5q-2 -100 -45 -138t-141 -38h-453q4 -121 51 -199.5t162 -76.5q61 0 98 26.5t66 81.5q31 59 149 47q61 -6 78.5 -39.5t5.5 -70.5q-39 -129 -146 -200t-257 -71q-240 2 -360.5 162 t-122.5 404zM356 664h336q39 0 37 45q-6 80 -52 124t-118 44q-88 0 -140 -57.5t-63 -155.5z" />
<glyph unicode="&#x436;" horiz-adv-x="1452" d="M53 92q20 45 56 179.5t85.5 215t141.5 109.5q-80 35 -160 192q-72 137 -94 175q-33 59 -7.5 85.5t93.5 28.5q106 2 156 -53q29 -31 79 -135q57 -115 93 -150q41 -39 100 -51v295q0 98 129 98q131 0 131 -98v-295q16 4 31.5 10.5t27 11.5t24.5 17t20.5 17.5t18.5 21.5 t16 21.5t15.5 26t12.5 23.5t13.5 26.5t13.5 25.5q53 104 77 135q51 55 158 53q68 -2 93.5 -28.5t-7.5 -85.5q-23 -37 -94 -175q-86 -160 -160 -192q92 -27 141.5 -107.5t85 -216t56.5 -180.5q45 -100 -88 -112q-147 -14 -185 112q-10 35 -25.5 90.5t-23.5 82t-22.5 64.5 t-29.5 56t-38.5 37.5t-55.5 26t-75 6.5v-377q0 -98 -131 -98q-129 0 -129 98v377q-49 0 -86 -12.5t-58.5 -28t-42 -57.5t-28.5 -68.5t-26.5 -94t-28.5 -102.5q-37 -127 -185 -112q-133 12 -88 112z" />
<glyph unicode="&#x437;" horiz-adv-x="925" d="M57 225q-33 131 103 140q100 8 135 -80q41 -100 143 -101q70 0 115 36t45 104q0 66 -49 96.5t-119 30.5q-57 0 -79.5 24.5t-22.5 75.5q0 70 28.5 89t81.5 19q63 0 99 31t36 86q0 98 -131 98q-61 0 -96 -23.5t-57 -78.5q-12 -27 -50 -39t-79 -8q-115 14 -92 100 q35 135 140 200t249 65q154 0 263 -78t109 -226q0 -135 -108 -221q133 -78 133 -248q0 -162 -121 -254t-284 -92q-139 0 -249 62.5t-143 191.5z" />
<glyph unicode="&#x438;" horiz-adv-x="1165" d="M133 78v905q0 98 137.5 98t137.5 -98v-537q32 66 67 115l309 477q29 43 117 43q131 0 131 -98v-905q0 -98 -137 -98t-137 98v538q-27 -51 -66 -116l-311 -475q-31 -45 -117 -45q-131 0 -131 98z" />
<glyph unicode="&#x439;" horiz-adv-x="1165" d="M133 78v905q0 98 137.5 98t137.5 -98v-537q29 59 65 115l311 477q29 43 117 43q131 0 131 -98v-905q0 -49 -40 -73.5t-97 -24.5q-137 0 -137 98v538q-31 -61 -68 -116l-309 -475q-31 -45 -117 -45q-131 0 -131 98zM281 1315q-25 53 28 96q25 20 57.5 23.5t55.5 -17.5 q68 -76 164 -76q98 0 166 76q23 20 55.5 17.5t56.5 -23.5q53 -47 27 -96q-31 -66 -117 -114t-188 -48q-100 0 -186.5 48t-118.5 114z" />
<glyph unicode="&#x43a;" horiz-adv-x="1044" d="M133 78v905q0 98 137.5 98t137.5 -98v-297q43 8 77.5 27.5t61 52.5t45 62.5t45.5 77.5t45 77q74 106 199 98q70 -4 100.5 -34.5t-4.5 -90.5q-25 -35 -80 -131t-103.5 -155.5t-103.5 -81.5q98 -27 150.5 -106t90.5 -214t58 -178q49 -100 -88 -113q-152 -14 -190 113 q-6 18 -19.5 63.5t-18.5 61.5t-18.5 53t-20.5 50.5t-21.5 39t-28 35.5t-31.5 25.5t-39.5 20.5t-48.5 9.5t-57 4.5v-375q0 -98 -137.5 -98t-137.5 98z" />
<glyph unicode="&#x43b;" horiz-adv-x="1110" d="M23 88q-2 109 73 121q27 4 52.5 28.5t31.5 67.5q12 74 19.5 182.5t12.5 226t7 148.5q14 199 193 199h381q184 0 184 -199v-784q0 -98 -137.5 -98t-137.5 98v721q0 41 -36 41h-154q-39 0 -39 -41q-4 -49 -13 -212t-20 -249q-25 -176 -89 -268.5t-212 -92.5q-59 0 -85.5 26 t-30.5 85z" />
<glyph unicode="&#x43c;" horiz-adv-x="1290" d="M133 78v897q0 55 38 80.5t95 25.5q98 0 135 -67l244 -463l244 463q35 67 135 67q57 0 95 -25.5t38 -80.5v-897q0 -98 -135 -98t-135 98v491q-25 -70 -45 -104l-97 -182q-31 -59 -100.5 -59.5t-99.5 59.5l-96 180q-16 31 -46 106v-491q0 -98 -135 -98t-135 98z" />
<glyph unicode="&#x43d;" horiz-adv-x="1146" d="M133 78v905q0 98 137.5 98t137.5 -98v-313h331v313q0 98 137.5 98t137.5 -98v-905q0 -98 -137.5 -98t-137.5 98v371h-331v-371q0 -98 -137.5 -98t-137.5 98z" />
<glyph unicode="&#x43e;" horiz-adv-x="1081" d="M72 530.5q0 550.5 469 550.5t469 -550.5t-469 -550.5t-469 550.5zM338 530q0 -340 203 -340q204 0 204 340q0 68 -7 119t-25.5 106.5t-62.5 85t-109.5 29.5t-108.5 -29.5t-62.5 -85t-25.5 -106.5t-6 -119z" />
<glyph unicode="&#x43f;" horiz-adv-x="1140" d="M133 78v784q0 90 46 144.5t138 54.5h508q182 0 183 -199v-784q0 -98 -137.5 -98t-137.5 98v721q0 41 -37 41h-252q-35 0 -34 -41v-721q0 -98 -138 -98q-53 0 -96 22.5t-43 75.5z" />
<glyph unicode="&#x440;" horiz-adv-x="1159" d="M133 -283v1264q0 104 125 104q119 0 133 -90q39 41 106.5 66.5t139.5 25.5q451 0 450 -555q0 -258 -111.5 -407.5t-338.5 -149.5q-147 0 -229 80v-338q0 -98 -137.5 -98t-137.5 98zM408 496q0 -117 51 -212.5t151 -95.5q188 0 189 344q0 342 -189 342q-96 0 -149 -89 t-53 -197v-92z" />
<glyph unicode="&#x441;" horiz-adv-x="1042" d="M72 530.5q0 550.5 469 550.5q174 0 287.5 -83t129.5 -222q8 -61 -19.5 -87.5t-98.5 -26.5q-102 2 -125 73q-20 70 -60.5 102.5t-113.5 32.5q-205 0 -205 -340t205 -340q123 0 180 134q29 72 131 75q63 2 95 -24.5t20 -79.5q-33 -145 -142.5 -230t-283.5 -85 q-469 0 -469 550.5z" />
<glyph unicode="&#x442;" horiz-adv-x="851" d="M31 950.5q0 110.5 98 110.5h594q98 0 98 -110.5t-98 -110.5h-160v-762q0 -98 -137 -98t-137 98v762h-160q-98 0 -98 110.5z" />
<glyph unicode="&#x443;" horiz-adv-x="983" d="M45 924q-49 135 88 147q139 16 166 -57l203 -563l192 563q25 74 164 57q68 -6 86.5 -37.5t-6.5 -103.5l-375 -1065q-92 -264 -393 -215q-84 14 -84 127q0 61 26.5 91t86.5 23q47 -6 87 18.5t56 70.5l31 90z" />
<glyph unicode="&#x444;" horiz-adv-x="1396" d="M51 528q0 506 514 539v281q0 94 133 94t133 -94v-281q244 -16 379.5 -153.5t135.5 -385.5q0 -492 -515 -532v-258q0 -96 -133 -96t-133 96v258q-514 29 -514 532zM338 537q0 -152 56.5 -231t170.5 -103v655q-113 -20 -170 -96t-57 -225zM831 203q113 25 170.5 103.5 t57.5 230.5q0 150 -57.5 225.5t-170.5 95.5v-655z" />
<glyph unicode="&#x445;" horiz-adv-x="944" d="M36.5 37q-20.5 39 18.5 96l271 420l-240 385q-29 45 -18.5 72.5t37 41t69.5 17.5q35 2 64.5 2t56.5 -14.5t41 -42.5l137 -258l135 258q23 41 62 50t102 5q68 -6 93.5 -34.5t-7.5 -96.5l-237 -385l268 -420q39 -57 18.5 -96t-92.5 -41q-39 -2 -71.5 -1t-63.5 17.5 t-49 48.5l-158 293l-160 -293q-18 -33 -47.5 -49t-63.5 -17t-73 1q-72 2 -92.5 41z" />
<glyph unicode="&#x446;" horiz-adv-x="1169" d="M133 201v782q0 98 137.5 98t137.5 -98v-721q0 -41 36 -41h267v762q0 98 137 98t137 -98v-762q164 -12 164 -172v-194q0 -98 -117 -99q-119 0 -119 99v104q0 41 -36 41h-562q-182 0 -182 201z" />
<glyph unicode="&#x447;" horiz-adv-x="1075" d="M92 664v319q0 98 137.5 98t137.5 -98v-293q0 -147 147 -147q78 0 152 49v391q0 98 137 98q139 0 139 -98v-905q0 -98 -139 -98q-137 0 -137 98v297q-94 -37 -211 -39q-166 -4 -264.5 82t-98.5 246z" />
<glyph unicode="&#x448;" horiz-adv-x="1636" d="M133 201v782q0 98 137.5 98t137.5 -98v-721q0 -41 36 -41h236v762q0 98 137 98t137 -98v-762h238q37 0 37 41v721q0 98 137 98t137 -98v-782q0 -201 -184 -201h-1004q-182 0 -182 201z" />
<glyph unicode="&#x449;" horiz-adv-x="1687" d="M133 201v782q0 98 137.5 98t137.5 -98v-721q0 -41 36 -41h236v762q0 98 137 98t137 -98v-762h275v762q0 98 137 98t137 -98v-762q164 -12 164 -172v-194q0 -98 -117 -99q-119 0 -118 99v104q0 41 -37 41h-1080q-182 0 -182 201z" />
<glyph unicode="&#x44a;" horiz-adv-x="1107" d="M10 950.5q0 110.5 96 110.5h207q195 0 195 -172v-189h225q104 0 179 -34.5t110 -92t50 -111.5t15 -111.5t-17 -114t-54 -111.5t-111 -90t-172 -35h-317q-183 0 -183 201v598q0 41 -36 41h-91q-96 0 -96 110.5zM508 252q0 -41 33 -41h149q49 0 86 36t37 103.5t-37 102 t-86 34.5h-182v-235z" />
<glyph unicode="&#x44b;" horiz-adv-x="1472" d="M133 201v782q0 98 137.5 98t137.5 -98v-283h202q104 0 179 -34.5t111 -92t50.5 -111.5t14.5 -111.5t-17.5 -114t-54.5 -111.5t-110.5 -90t-172.5 -35h-295q-182 0 -182 201zM408 252q0 -41 32 -41h127q49 0 86 36t37 103.5t-37 102t-86 34.5h-159v-235zM1065 78v905 q0 98 137 98t137 -98v-905q0 -98 -137 -98t-137 98z" />
<glyph unicode="&#x44c;" horiz-adv-x="1013" d="M133 201v782q0 98 137.5 98t137.5 -98v-283h231q104 0 179 -34.5t110 -92t50 -111.5t15 -111.5t-17.5 -114t-54 -111.5t-110.5 -90t-172 -35h-324q-182 0 -182 201zM408 252q0 -41 34 -41h154q49 0 86 36t37 103.5t-37 102t-86 34.5h-188v-235z" />
<glyph unicode="&#x44d;" horiz-adv-x="1042" d="M78 233q-16 51 11.5 88t88.5 44q102 10 139 -56q68 -119 185 -119q98 -2 147 69t56 177h-240q-98 0 -98 110.5t98 110.5h235q-6 94 -55 152.5t-143 58.5q-123 0 -176 -110q-37 -80 -140 -66q-141 16 -86 156q84 231 402 231q469 0 469 -551q0 -549 -469 -548 q-168 0 -277.5 67.5t-146.5 185.5z" />
<glyph unicode="&#x44e;" horiz-adv-x="1591" d="M133 78v905q0 98 137.5 98t137.5 -98v-313h182q63 412 461 411q469 0 469 -551q0 -549 -469 -548q-426 0 -465 467h-178v-371q0 -98 -137.5 -98t-137.5 98zM846 530q0 -338 204.5 -338t204.5 338q0 340 -204.5 340t-204.5 -340z" />
<glyph unicode="&#x44f;" horiz-adv-x="1081" d="M68.5 30q-37.5 38 3.5 87q35 43 68.5 117.5t72.5 135t96 97.5q-94 23 -150.5 102.5t-56.5 161.5q0 55 17.5 108.5t54.5 105.5t110.5 84t172.5 32h309q182 0 182 -199v-784q0 -98 -137 -98t-137 98v317h-76q-51 0 -94 -38t-63.5 -76.5t-48 -110.5t-38.5 -90 q-29 -57 -67.5 -77.5t-110.5 -16.5q-70 6 -107.5 44zM377 731q0 -123 121 -123h176v201q0 41 -35 41h-141q-121 0 -121 -119z" />
<glyph unicode="&#x451;" d="M72 537q0 113 26.5 209t80.5 173.5t148.5 122.5t219.5 45q207 0 324.5 -119.5t115.5 -318.5q-2 -100 -45 -138t-141 -38h-453q4 -121 51 -199.5t162 -76.5q61 0 98 26.5t66 81.5q31 59 149 47q61 -6 78.5 -39.5t5.5 -70.5q-39 -129 -146 -200t-257 -71q-240 2 -360.5 162 t-122.5 404zM244 1313q0 129 129 129q127 0 127 -129q0 -63 -28 -97t-99 -34q-129 0 -129 131zM356 664h336q39 0 37 45q-6 80 -52 124t-118 44q-88 0 -140 -57.5t-63 -155.5zM590 1313q0 129 127 129t127 -129q0 -63 -28 -97t-99.5 -34t-99 33.5t-27.5 97.5z" />
<glyph unicode="&#x452;" horiz-adv-x="1173" d="M0 1243q0 80 57 80h95v20q0 100 139 101q137 -1 137 -101v-20h182q57 0 58 -80q0 -84 -58 -84h-182v-182q121 119 289 119q344 0 344 -365v-854q0 -141 -83 -209.5t-196 -73.5q-197 0 -192 127q4 29 25.5 48.5t52.5 19.5q74 -2 95 19.5t21 85.5v778q0 176 -118 176 q-90 0 -146.5 -51.5t-74 -116t-17.5 -145.5v-459q0 -96 -137 -96q-139 0 -139 96v1083h-95q-57 0 -57 84z" />
<glyph unicode="&#x453;" horiz-adv-x="825" d="M133 76v784q0 201 180 201h383q51 0 75 -32t24 -77q0 -113 -99 -112h-254q-35 0 -34 -41v-723q0 -96 -137.5 -96t-137.5 96zM389 1249l68 156q31 61 112 61q55 0 82 -6q51 -8 57.5 -41t-32.5 -71l-115 -140q-49 -53 -121 -39q-80 17 -51 80z" />
<glyph unicode="&#x454;" horiz-adv-x="1042" d="M72 528q0 553 469 553q315 0 403 -233q51 -139 -88 -156q-102 -14 -139 66q-51 111 -176 110q-94 0 -143.5 -58t-55.5 -153h236q98 0 98 -110.5t-98 -110.5h-240q6 -106 55 -177t148 -69q117 0 186 119q37 66 137 56q61 -6 89 -43t12 -89q-37 -119 -146.5 -186 t-277.5 -67q-469 0 -469 548z" />
<glyph unicode="&#x455;" horiz-adv-x="972" d="M78 762q0 152 120.5 240t280.5 88q307 0 387 -230q18 -53 -2 -80.5t-80 -36.5q-117 -14 -163 52q-55 82 -144 82q-143 0 -143 -93q0 -84 203 -118q88 -16 149.5 -38t118.5 -59t87 -96t30 -141q0 -170 -120 -264.5t-290 -94.5q-326 0 -426 248q-53 127 84 152 q109 16 145 -64q59 -117 195 -116q55 0 101 29.5t48 82.5q0 55 -50 81t-177 52q-76 16 -131 37t-110.5 56.5t-84 94t-28.5 136.5z" />
<glyph unicode="&#x456;" horiz-adv-x="565" d="M133 1313q0 68 33 101.5t117 33.5q82 0 115.5 -35t33.5 -100q0 -68 -31.5 -106t-117.5 -38q-88 0 -119 37t-31 107zM145 80v903q0 98 137.5 98t137.5 -98v-903q0 -98 -137.5 -98t-137.5 98z" />
<glyph unicode="&#x457;" horiz-adv-x="587" d="M10 1321q0 121 121 121t121 -121q0 -125 -121 -125t-121 125zM158 78v905q0 98 137 98t137 -98v-905q0 -98 -137 -98t-137 98zM338 1321q0 121 121 121q119 0 119 -121q0 -125 -119 -125q-68 0 -94.5 32t-26.5 93z" />
<glyph unicode="&#x458;" horiz-adv-x="573" d="M-72 -215q0 61 31 89t96 28q98 0 99 121v960q0 98 137 98t137 -98v-1016q0 -174 -109.5 -258t-291.5 -65q-98 10 -99 141zM141 1312.5q0 67.5 33 101.5t117 34t116.5 -34t32.5 -101q0 -70 -30.5 -107t-118.5 -37q-86 0 -118 38t-32 105.5z" />
<glyph unicode="&#x459;" horiz-adv-x="1583" d="M23 88q-6 55 15 87t56 36q29 4 54.5 27.5t31.5 66.5q16 96 26.5 317.5t12.5 237.5q14 201 193 201h381q186 0 186 -201v-160h231q104 0 178 -34.5t109 -92t50.5 -112.5t15.5 -113q0 -55 -17.5 -111.5t-55.5 -111.5t-110.5 -90t-169.5 -35h-325q-182 0 -183 201v598 q0 41 -36 41h-156q-37 0 -37 -41q-6 -51 -15 -214t-20 -247q-23 -174 -89 -267.5t-212 -93.5q-59 0 -85.5 26t-28.5 85zM979 252q0 -41 33 -41h151q51 0 87 35t36 102.5t-36 103t-87 35.5h-184v-235z" />
<glyph unicode="&#x45a;" horiz-adv-x="1622" d="M133 76v909q0 96 137.5 96t137.5 -96v-291h333v291q0 96 138 96q139 0 139 -96v-291h231q104 0 178 -33.5t110 -90t50.5 -109.5t14.5 -113q0 -55 -16.5 -111.5t-54.5 -111.5t-110.5 -90t-171.5 -35h-323q-185 0 -185 201v280h-333v-405q0 -96 -137.5 -96t-137.5 96z M1018 252q0 -41 35 -41h153q47 0 84 35t37 102q0 66 -37 99.5t-84 33.5h-188v-229z" />
<glyph unicode="&#x45b;" horiz-adv-x="1193" d="M20 1243q0 80 60 80h90v20q0 100 139 101q137 -1 137 -101v-20h183q63 0 63 -80q0 -84 -63 -84h-183v-182q127 119 289 119q346 0 346 -365v-655q0 -96 -141 -96q-137 0 -137 96v596q0 176 -119 176q-88 0 -144.5 -51.5t-75 -117t-18.5 -144.5v-459q0 -96 -137 -96 q-139 0 -139 96v1083h-90q-59 0 -60 84z" />
<glyph unicode="&#x45c;" horiz-adv-x="1046" d="M133 76v909q0 96 137 96q136 0 136 -96v-297q55 10 99 43t64.5 61.5t59.5 96t57 96.5q70 106 197 96q68 -4 100.5 -34.5t-2.5 -85.5q-27 -37 -82 -133.5t-103 -157t-104 -82.5q76 -20 128 -81t73.5 -123t49.5 -155.5t50 -140.5q45 -96 -90 -111q-158 -10 -192 111 q-4 16 -18.5 65.5t-18.5 61.5t-17.5 52t-20.5 50.5t-22.5 39t-28 36.5t-31.5 24.5t-40.5 20.5t-48.5 9.5t-59 3.5v-375q0 -96 -136 -96q-137 0 -137 96zM449 1245l69 156q33 66 113 63q57 0 80 -8q53 -8 60 -40t-30 -73l-120 -139q-49 -53 -115 -39q-86 14 -57 80z" />
<glyph unicode="&#x45e;" horiz-adv-x="983" d="M45 924q-49 135 88 147q139 16 166 -57l203 -563l192 563q25 74 164 57q68 -6 86.5 -37.5t-6.5 -103.5l-375 -1065q-92 -264 -393 -215q-84 14 -84 127q0 61 26.5 91t86.5 23q47 -6 87 18.5t56 70.5l31 90zM213 1313q-25 53 29 96q25 20 57.5 23.5t54.5 -17.5 q68 -76 164 -76q98 0 166 76q23 20 55.5 17.5t57.5 -23.5q53 -47 26 -96q-31 -66 -117 -114t-188 -48q-100 0 -186 48t-119 114z" />
<glyph unicode="&#x45f;" horiz-adv-x="1144" d="M133 201v784q0 96 139 96q137 0 138 -96v-723q0 -41 34 -41h256q37 0 37 41v723q0 96 137.5 96t137.5 -96v-784q0 -201 -185 -201h-129v-195q0 -88 -127 -88q-123 0 -122 88v195h-132q-184 0 -184 201z" />
<glyph unicode="&#x490;" horiz-adv-x="980" d="M133 76v1177q0 106 54.5 143.5t148.5 37.5h358q31 0 43.5 14t12.5 49v262q0 78 104 78q106 0 107 -78v-375q0 -197 -209 -196h-312q-35 0 -34 -35v-1077q0 -92 -138 -92q-135 0 -135 92z" />
<glyph unicode="&#x491;" horiz-adv-x="886" d="M133 76v784q0 201 182 201h308q20 0 29.5 8t9.5 37v276q0 66 98 66q37 0 66.5 -15.5t29.5 -50.5v-350q0 -111 -47 -151.5t-139 -40.5h-228q-37 0 -36 -41v-723q0 -96 -136 -96q-137 0 -137 96z" />
<glyph unicode="&#x2000;" horiz-adv-x="918" />
<glyph unicode="&#x2001;" horiz-adv-x="1837" />
<glyph unicode="&#x2002;" horiz-adv-x="918" />
<glyph unicode="&#x2003;" horiz-adv-x="1837" />
<glyph unicode="&#x2004;" horiz-adv-x="612" />
<glyph unicode="&#x2005;" horiz-adv-x="459" />
<glyph unicode="&#x2006;" horiz-adv-x="306" />
<glyph unicode="&#x2007;" horiz-adv-x="306" />
<glyph unicode="&#x2008;" horiz-adv-x="229" />
<glyph unicode="&#x2009;" horiz-adv-x="367" />
<glyph unicode="&#x200a;" horiz-adv-x="102" />
<glyph unicode="&#x2010;" horiz-adv-x="716" d="M72 535q0 115 78 114h415q80 0 80 -114q0 -113 -80 -113h-415q-78 0 -78 113z" />
<glyph unicode="&#x2011;" horiz-adv-x="716" d="M72 535q0 115 78 114h415q80 0 80 -114q0 -113 -80 -113h-415q-78 0 -78 113z" />
<glyph unicode="&#x2012;" horiz-adv-x="716" d="M72 535q0 115 78 114h415q80 0 80 -114q0 -113 -80 -113h-415q-78 0 -78 113z" />
<glyph unicode="&#x2013;" horiz-adv-x="1167" d="M72 535q0 115 139 114h742q143 0 143 -114q0 -113 -143 -113h-742q-139 0 -139 113z" />
<glyph unicode="&#x2014;" horiz-adv-x="2191" d="M72 535q0 115 279 114h1483q286 0 286 -114q0 -113 -286 -113h-1483q-279 0 -279 113z" />
<glyph unicode="&#x202f;" horiz-adv-x="367" />
<glyph unicode="&#x205f;" horiz-adv-x="459" />
<glyph unicode="&#x25fc;" horiz-adv-x="1075" d="M0 0v1075h1075v-1075h-1075z" />
</font>
</defs>
</svg>
