<?xml version="1.0" standalone="no"?>
<!DOCTYPE svg PUBLIC "-//W3C//DTD SVG 1.1//EN" "http://www.w3.org/Graphics/SVG/1.1/DTD/svg11.dtd" >
<svg xmlns="http://www.w3.org/2000/svg">
<metadata></metadata>
<defs>
<font id="fregatregular" horiz-adv-x="1079" >
<font-face units-per-em="2048" ascent="1638" descent="-410" />
<missing-glyph horiz-adv-x="634" />
<glyph horiz-adv-x="0" />
<glyph unicode="&#xd;" horiz-adv-x="681" />
<glyph unicode=" "  horiz-adv-x="634" />
<glyph unicode="&#x09;" horiz-adv-x="634" />
<glyph unicode="&#xa0;" horiz-adv-x="634" />
<glyph unicode="!" horiz-adv-x="460" d="M115 1325q-2 49 29.5 80t84.5 31q57 0 88 -29t29 -82l-65 -942q-2 -43 -52 -43q-45 0 -49 43zM117 100q0 115 112 115q66 0 89.5 -27.5t23.5 -87t-23.5 -90t-89.5 -30.5q-112 -1 -112 120z" />
<glyph unicode="&#x22;" horiz-adv-x="673" d="M115 1006l57 360q16 78 115 74q51 -4 71.5 -36t1.5 -79l-129 -334q-10 -27 -24 -37t-45 -8q-25 2 -38 18.5t-9 41.5zM387 1006l57 360q16 78 115 74q51 -4 71.5 -36t2.5 -79l-129 -334q-19 -51 -70 -45q-25 2 -38 18.5t-9 41.5z" />
<glyph unicode="#" horiz-adv-x="1216" d="M53.5 514q12.5 68 71.5 68h174l53 301h-174q-59 0 -47 67q8 68 72 68h172l63 360q10 59 77.5 59t57.5 -59l-63 -360h297l63 360q10 59 78 59.5t58 -59.5l-64 -360h174q59 0 47 -67.5t-71 -67.5h-172l-54 -301h172q61 0 49 -68t-71 -68h-174l-70 -393q-10 -59 -77.5 -59 t-57.5 59l70 393h-297l-70 -393q-10 -59 -77.5 -59t-57.5 59l69 393h-174q-59 0 -46.5 68zM434 582h297l51 301h-295z" />
<glyph unicode="$" horiz-adv-x="1132" d="M33 393q-2 31 20.5 49.5t57.5 18.5q75 0 79 -72q8 -106 86 -175t199 -87v561q-92 23 -150.5 46.5t-124 65.5t-97 109.5t-31.5 161.5q0 174 115.5 274.5t287.5 114.5v70q0 61 69.5 61t69.5 -61v-70q356 -35 410 -344q8 -41 -8.5 -61.5t-61.5 -18.5q-72 0 -88 66 q-39 174 -252 207v-496q98 -25 166 -50.5t138.5 -71.5t106.5 -117.5t36 -167.5q0 -197 -127 -307.5t-320 -125.5v-82q0 -61 -69.5 -61t-69.5 61v86q-184 23 -307 126.5t-135 289.5zM250 1079q0 -154 225 -227v461q-96 -12 -160.5 -72.5t-64.5 -161.5zM614 125 q115 12 191 81.5t76 184.5q0 104 -74 163.5t-193 96.5v-526z" />
<glyph unicode="%" horiz-adv-x="1363" d="M72 1165q0 133 62.5 210t193.5 77t193.5 -77t62.5 -210t-63.5 -209.5t-192.5 -76.5t-192.5 76.5t-63.5 209.5zM197 1165.5q0 -188.5 131 -188.5t131 188.5t-131 188.5t-131 -188.5zM242 53l747 1325q33 59 92 60q76 -1 43 -60l-747 -1325q-33 -59 -92 -59q-76 0 -43 59z M782 268q0 285 256 285q254 0 254 -285q0 -133 -62.5 -209.5t-191.5 -76.5t-192.5 76.5t-63.5 209.5zM905 268q0 -188 133 -188q131 0 131 188q0 186 -131 187q-133 0 -133 -187z" />
<glyph unicode="&#x26;" horiz-adv-x="1288" d="M72 420q0 248 336 444q-102 193 -103 301q0 119 86 210t209 91q139 0 224 -76.5t85 -218.5q0 -182 -299 -360q106 -178 310 -408q63 137 69 295q4 55 78 56q35 0 54.5 -16.5t17.5 -49.5q-10 -219 -115 -401q45 -49 121 -129t100 -105q23 -25 -0.5 -44t-60.5 -23 q-76 -9 -113 30q-96 102 -137 146q-164 -174 -373 -174q-131 0 -237.5 42t-179 142t-72.5 248zM264 420q0 -127 82 -204t207 -77q166 0 283 133q-229 264 -355 465q-217 -129 -217 -317zM465 1163q0 -86 74 -225q190 119 190 244q0 61 -35 101t-94 40q-66 0 -100.5 -47 t-34.5 -113z" />
<glyph unicode="'" horiz-adv-x="399" d="M115 1006l57 360q10 74 115 74q49 0 69.5 -33t3.5 -82l-129 -334q-12 -27 -26 -37t-43 -8q-57 4 -47 60z" />
<glyph unicode="(" horiz-adv-x="512" d="M92 538.5q0 524.5 293 888.5q31 37 80 21q27 -8 34 -28.5t-7 -41.5q-225 -375 -226 -839q0 -467 226 -842q14 -20 7 -39.5t-34 -28.5q-49 -14 -80 19q-293 366 -293 890.5z" />
<glyph unicode=")" horiz-adv-x="512" d="M12 1419q6 21 35 29q51 16 78 -21q295 -366 295 -888.5t-295 -890.5q-29 -35 -78 -19q-59 16 -27 68q225 375 226 842q0 465 -226 839q-14 20 -8 41z" />
<glyph unicode="*" horiz-adv-x="952" d="M57 1139q14 41 44 53t67 -6l266 -125l-37 291q-4 41 17.5 65.5t62.5 24.5t62.5 -24.5t17.5 -65.5l-37 -291l266 125q37 16 67 3t42 -52q14 -39 -2 -67t-57 -36l-289 -55l201 -215q29 -29 24.5 -61.5t-37.5 -57.5q-74 -53 -117 27l-143 256l-141 -256q-43 -80 -117 -27 q-33 25 -37 57.5t25 63.5l203 213l-289 55q-41 8 -57.5 37t-4.5 68z" />
<glyph unicode="+" horiz-adv-x="1142" d="M72 719q0 72 63 72h365v364q0 63 71.5 63t71.5 -63v-364h365q63 0 63 -72t-63 -72h-365v-364q0 -63 -71.5 -63.5t-71.5 63.5v364h-365q-63 0 -63 72z" />
<glyph unicode="," horiz-adv-x="462" d="M94 -213l60 360q12 80 114 74q49 -4 69.5 -35.5t2.5 -79.5l-127 -331q-10 -29 -25.5 -39t-46.5 -8q-53 4 -47 59z" />
<glyph unicode="-" horiz-adv-x="700" d="M92 547q0 74 64 74h389q63 0 63 -74q0 -72 -63 -72h-389q-63 0 -64 72z" />
<glyph unicode="." horiz-adv-x="501" d="M133 106q0 59 25.5 90t91.5 31q70 0 94.5 -29.5t24.5 -91.5q0 -63 -25 -94.5t-94.5 -31.5t-93 31.5t-23.5 94.5z" />
<glyph unicode="/" horiz-adv-x="966" d="M18 -299l793 1677q29 59 92 60q72 -1 45 -60l-794 -1677q-29 -59 -95 -59q-70 0 -41 59z" />
<glyph unicode="0" horiz-adv-x="1157" d="M82 719q0 739 496 739q497 0 497 -739q0 -342 -123 -542t-374.5 -200t-373.5 199t-122 543zM268 719q0 -78 3 -139.5t13.5 -136t32 -130t54 -103.5t86 -72.5t121.5 -24.5q82 0 141 38.5t91 95t50.5 143.5t23.5 161t5 168q0 80 -3 139.5t-12.5 135t-31 129t-54 102.5 t-86 73.5t-124.5 24.5q-70 0 -123.5 -24.5t-86 -73.5t-54 -102.5t-31 -129t-12.5 -135t-3 -139.5z" />
<glyph unicode="1" horiz-adv-x="692" d="M43 1157q-12 55 49 90l299 166q45 33 84 29q84 -4 84 -78v-1321q0 -76 -88 -76q-86 0 -86 76v1202q-41 -31 -104 -61l-125 -68q-88 -45 -113 41z" />
<glyph unicode="2" horiz-adv-x="1067" d="M41 102q0 74 63 144q68 80 199 183t234.5 180t184.5 181.5t81 204.5q0 131 -73 223.5t-226 92.5q-133 0 -207 -71t-84 -150q-8 -76 -82 -76q-39 0 -59.5 17.5t-18.5 58.5q10 168 138 269t305 101q219 0 351 -109.5t132 -314.5q0 -119 -51 -221t-138.5 -183t-177.5 -146.5 t-196.5 -144.5t-165.5 -142q-12 -12 -8 -26.5t26 -14.5h668q70 0 70 -78q0 -80 -70 -80h-801q-45 0 -69.5 29.5t-24.5 72.5z" />
<glyph unicode="3" horiz-adv-x="1052" d="M51 248q-31 76 33 104q27 16 59.5 9t51.5 -37q41 -90 108.5 -145.5t198.5 -55.5q133 0 217 90t86 236q0 100 -40 165.5t-103.5 88t-137 31.5t-141.5 -5q-61 -6 -87 45t17 103l265 305q43 49 98 88l-2 8h-533q-68 0 -67 80q-1 76 67 76h701q72 0 71 -76q0 -37 -30 -68 l-391 -413q-8 -14 -4 -19.5t14 -5.5q115 10 221 -25.5t182 -129t76 -228.5q0 -84 -24.5 -163t-77 -152.5t-150.5 -118.5t-229 -45q-332 0 -449 258z" />
<glyph unicode="4" horiz-adv-x="1136" d="M41 412q0 37 16 63l574 883q59 92 155 92q61 0 92 -18.5t31 -71.5v-879h123q63 0 64 -71q0 -74 -64 -74h-123v-279q0 -78 -86 -77q-88 0 -88 77v279h-626q-68 0 -68 76zM223 481h512v776q-49 -94 -92 -161l-307 -469q-55 -86 -113 -146z" />
<glyph unicode="5" horiz-adv-x="1089" d="M94 242q-33 74 33 104q76 35 109 -31q43 -90 111.5 -145t199.5 -55q133 0 219 91t86 234q2 166 -81 240t-212 80q-127 2 -258 -41q-88 -29 -140 8t-42 121l67 481q14 104 117 105h557q76 0 76 -78t-76 -78h-477q-27 0 -35 -10.5t-12 -36.5l-43 -313q-6 -57 57 -41 q115 29 209 28q86 0 165 -22.5t149.5 -70.5t112.5 -138t42 -211q0 -84 -24.5 -164t-75.5 -154.5t-149.5 -119.5t-231.5 -45q-334 0 -453 262z" />
<glyph unicode="6" horiz-adv-x="1122" d="M86 682q16 266 186 487.5t449 286.5q86 20 125 -47q18 -45 0.5 -63.5t-53.5 -24.5q-221 -35 -376 -217t-167 -381h6q49 94 148.5 150.5t209.5 56.5q197 0 311.5 -135.5t114.5 -339.5q0 -213 -131 -345.5t-334 -132.5q-121 0 -212 43t-146 112t-87 162t-41 188.5t-3 199.5 zM276 453q0 -137 75 -240.5t220 -103.5q139 0 216 99t77 249q0 166 -74.5 250t-216 84t-219.5 -109t-78 -229z" />
<glyph unicode="7" horiz-adv-x="937" d="M41 1356q0 78 70 78h714q72 0 72 -66q0 -29 -10 -59l-441 -1252q-27 -78 -120 -77q-41 0 -65.5 18t-8.5 59l459 1188q10 31 -21 31h-579q-70 0 -70 80z" />
<glyph unicode="8" horiz-adv-x="1134" d="M82 412q0 129 68.5 223t185.5 141q-186 98 -186 307q0 170 107.5 271.5t310 101.5t310 -101.5t107.5 -271.5q0 -209 -186 -307q117 -47 185.5 -141t68.5 -223q0 -201 -126 -325t-360 -124q-236 0 -360.5 124t-124.5 325zM266 395q0 -123 74 -217t223 -94q152 0 225.5 94 t73.5 217q0 119 -80 216.5t-219 97.5t-218 -98.5t-79 -215.5zM313 1081q0 -86 71 -157.5t183 -71.5q111 0 182.5 71.5t71.5 157.5q0 96 -58 168t-195.5 72t-196 -71.5t-58.5 -168.5z" />
<glyph unicode="9" horiz-adv-x="1120" d="M82 979q0 213 135 346t340 133q135 0 235.5 -59.5t153.5 -161.5t75.5 -224t14.5 -259q-14 -264 -192 -491.5t-459 -293.5q-84 -18 -121 47q-18 45 -3 63.5t52 24.5q233 45 387 225.5t172 381.5l-6 2q-49 -96 -148.5 -150.5t-211.5 -54.5q-197 0 -310.5 133t-113.5 338z M258 977q0 -147 76 -239.5t221 -92.5q127 0 207 100.5t80 231.5q0 135 -74 241.5t-213 106.5q-141 0 -219 -98t-78 -250z" />
<glyph unicode=":" horiz-adv-x="501" d="M133 106q0 59 25.5 90t91.5 31q70 0 94.5 -29.5t24.5 -91.5q0 -63 -25 -94.5t-94.5 -31.5t-93 31.5t-23.5 94.5zM133 938q0 59 25.5 90t91.5 31q70 0 94.5 -30t24.5 -91q0 -63 -25 -96t-94 -33q-68 0 -92.5 32.5t-24.5 96.5z" />
<glyph unicode=";" horiz-adv-x="481" d="M94 -213l58 360q12 80 114 74q51 -4 70.5 -35.5t1.5 -79.5l-127 -331q-10 -29 -24.5 -39t-45.5 -8q-57 4 -47 59zM111 938q0 59 25.5 90t93 31t92 -30t24.5 -91q0 -63 -24.5 -96t-92.5 -33q-70 0 -94 32.5t-24 96.5z" />
<glyph unicode="&#x3c;" horiz-adv-x="1001" d="M10 535q0 43 18.5 66.5t63.5 45.5l750 361q84 37 86 -43q4 -82 -62 -99l-639 -317q-10 -4 -10 -14.5t10 -14.5l639 -317q35 -18 49.5 -39t12.5 -60q-2 -45 -24.5 -53t-61.5 10l-750 359q-45 23 -63.5 47.5t-18.5 67.5z" />
<glyph unicode="=" horiz-adv-x="1140" d="M72 546.5q0 71.5 63 71.5h871q63 0 63 -71.5t-63 -71.5h-871q-63 0 -63 71.5zM72 891q0 72 63 72h871q63 0 63 -72t-63 -72h-871q-63 0 -63 72z" />
<glyph unicode="&#x3e;" horiz-adv-x="1001" d="M74 104q-2 39 12 60t49 39l639 317q8 4 8 14.5t-8 14.5l-639 317q-66 16 -61 99q2 80 86 43l749 -361q45 -23 63.5 -46t18.5 -66t-18.5 -68t-63.5 -47l-749 -359q-39 -18 -61.5 -10t-24.5 53z" />
<glyph unicode="?" horiz-adv-x="968" d="M30.5 1204q-1.5 29 8.5 39q135 199 403 207q188 6 329.5 -102.5t143.5 -294.5q2 -113 -50 -189t-148 -155q-14 -12 -51 -43t-50.5 -42.5t-39 -39t-35 -50t-20.5 -58.5t-13 -77q-4 -43 -57 -43q-66 0 -66 47q-2 66 7 117t37 95t51.5 73t70.5 77t74 77q90 96 90 207 q0 129 -82 193.5t-195 64.5q-172 0 -286 -144q-39 -53 -97 -6q-23 18 -24.5 47zM336 100q0 57 25 86t88 29q66 0 89 -27.5t23 -87t-23.5 -90t-89 -30.5t-89 30.5t-23.5 89.5z" />
<glyph unicode="@" horiz-adv-x="1531" d="M72 717q0 313 211 530t514 217q270 0 466.5 -181t196.5 -460q0 -203 -102 -364q-102 -158 -264 -158q-61 0 -105.5 35t-56.5 94q-33 -57 -98.5 -95t-131.5 -38q-172 0 -238.5 126t-29.5 316q31 160 148.5 258.5t269.5 98.5h113q74 0 104.5 -33t22.5 -117l-41 -342 q0 -4 -2 -21.5t-3.5 -24.5t-2.5 -23.5t1.5 -24.5t4.5 -21.5t7 -20.5t12 -15.5t18.5 -11.5t25.5 -3q92 0 158 111q66 113 65 262q0 233 -156.5 377.5t-385.5 144.5q-246 0 -415 -181t-169 -435q0 -270 177 -441.5t439 -171.5q205 0 410 97q61 29 80 -43q14 -61 -39 -86 q-215 -98 -451 -99q-319 0 -536 209t-217 535zM584.5 529.5q25.5 -93.5 115.5 -93.5q100 0 164 94q47 66 66 218l20 176q2 23 -4 30t-26 7h-95q-100 0 -159.5 -73t-79.5 -171q-27 -94 -1.5 -187.5z" />
<glyph unicode="A" horiz-adv-x="1165" d="M37 59l434 1307q25 76 111 76t110 -76l436 -1307q6 -18 6 -32q0 -45 -65 -45h-2q-94 0 -119 75l-114 361h-502l-115 -361q-37 -75 -117 -75h-2h-2q-65 0 -65 45q0 14 6 32zM375 553h416l-142 436q-20 66 -67 264q-33 -158 -68 -264z" />
<glyph unicode="B" horiz-adv-x="1191" d="M133 188v1057q0 88 36 138.5t132 50.5h381q170 0 284.5 -90.5t114.5 -258.5q0 -123 -61.5 -205.5t-173.5 -117.5q131 -35 202.5 -131t71.5 -234q0 -193 -120.5 -295t-317.5 -102h-381q-96 0 -132 50t-36 138zM301 209q0 -61 55 -62h318q119 0 195.5 68t76.5 188 q0 139 -81 209t-218 70h-346v-473zM301 819h303q305 0 305 248q0 113 -73.5 167t-188.5 54h-291q-55 0 -55 -63v-406z" />
<glyph unicode="C" horiz-adv-x="1214" d="M72 717q0 346 143.5 543.5t446.5 197.5q209 0 347 -124t152 -335q1 -6 1 -11q0 -57 -77 -64q-80 0 -88 63q-23 145 -106.5 240.5t-228.5 95.5q-102 0 -178 -38t-118 -96.5t-68 -143t-33 -160.5t-7 -168t7 -168t33 -161t68 -142.5t117.5 -95t178.5 -37.5q145 0 229 94 t106 242q9 61 77 61h11q77 -4 77 -64q0 -6 -1 -12q-16 -199 -151.5 -328t-347.5 -129q-303 0 -446.5 197t-143.5 543z" />
<glyph unicode="D" horiz-adv-x="1241" d="M133 188v1057q0 88 35 138.5t133 50.5h281q285 0 436 -198t151 -503q0 -133 -33.5 -259t-100 -234.5t-182.5 -174t-263 -65.5h-289q-96 0 -132 50t-36 138zM307 211q0 -33 12.5 -45t42.5 -12h203q221 0 324.5 164.5t103.5 414.5q0 236 -107.5 393.5t-320.5 157.5h-203 q-31 0 -43 -13.5t-12 -45.5v-1014z" />
<glyph unicode="E" horiz-adv-x="1058" d="M133 188v1057q0 88 36 138.5t132 50.5h617q69 0 69 -78q-1 -80 -69 -80h-556q-55 0 -55 -57v-398h484q66 0 66 -74q0 -77 -66 -77h-484v-455q0 -57 55 -57h556q69 0 69 -78q-1 -80 -69 -80h-617q-96 0 -132 50t-36 138z" />
<glyph unicode="F" horiz-adv-x="1038" d="M133 59v1186q0 88 35 138.5t133 50.5h617q70 0 69 -78q0 -80 -69 -80h-556q-55 0 -55 -57v-428h481q68 0 68 -76t-68 -76h-481v-580q0 -77 -86 -77h-2q-86 0 -86 77z" />
<glyph unicode="G" horiz-adv-x="1271" d="M72 717q0 346 142 543.5t448 197.5q174 0 306 -91t177 -261q5 -18 5 -34q0 -24 -12 -40q-18 -28 -55 -28q-45 0 -69.5 14t-38.5 61q-35 106 -117 175t-196 69q-102 0 -179 -38t-119 -96.5t-68 -143t-34 -160.5t-8 -168q0 -111 19.5 -209t63.5 -191.5t129 -148.5t202 -55 q162 0 251 134q87 131 87 306v8q0 43 -37 43h-273q-65 0 -65 70q0 71 63 71h2h312q109 0 140.5 -38.5t31.5 -151.5q-2 -244 -137.5 -411t-380.5 -167q-287 0 -438.5 202t-151.5 538z" />
<glyph unicode="H" horiz-adv-x="1230" d="M133 57v1307q0 78 88 78t88 -78v-524h615v524q0 78 86 78q88 0 88 -78v-1307q0 -75 -86 -75h-2q-86 0 -86 75v625h-615v-625q0 -76 -87 -76l-1 1q-88 0 -88 75z" />
<glyph unicode="I" horiz-adv-x="440" d="M133 59v1307q0 76 86 76q88 0 88 -76v-1307q0 -77 -86 -77h-2q-86 0 -86 77z" />
<glyph unicode="J" horiz-adv-x="774" d="M12 90q4 35 25.5 52.5t56.5 7.5q80 -25 133 -25q147 0 193.5 74.5t46.5 238.5v928q0 76 88 76q86 0 86 -76v-924q0 -207 -96 -338t-297 -131q-84 0 -182 27q-54 17 -54 79v11z" />
<glyph unicode="K" horiz-adv-x="1083" d="M133 59v1305q0 78 88 78q86 0 86 -78v-586l527 608q43 54 103 54q10 0 21 -2q42 -6 52 -36q2 -7 3 -14q0 -26 -26 -61l-387 -434l459 -801q21 -37 21 -61q0 -38 -50 -47q-18 -3 -34 -3q-69 0 -97 50l-414 731l-178 -201v-502q0 -77 -84 -77h-2q-88 0 -88 77z" />
<glyph unicode="L" horiz-adv-x="929" d="M133 188v1178q0 76 88 76t88 -76v-1151q0 -57 56 -57h464q70 0 70 -78q0 -80 -70 -80h-526q-98 0 -134 50t-36 138z" />
<glyph unicode="M" horiz-adv-x="1378" d="M133 59v1305q0 78 88 78q74 0 115 -78l354 -680l352 680q41 78 115 78q88 0 88 -78v-1305q0 -77 -74 -77h-2q-84 0 -84 75v1098q-37 -94 -53 -125l-248 -473q-39 -74 -94 -74q-57 0 -96 74l-248 473q-16 31 -53 125v-1098q0 -75 -82 -75h-2q-76 0 -76 77z" />
<glyph unicode="N" horiz-adv-x="1259" d="M133 43v1323q0 76 98 76q76 0 109 -62l655 -1140q-20 135 -20 276v864q0 29 21.5 45.5t54.5 16.5q76 0 75 -62v-1325q0 -73 -95 -73h-3q-74 0 -110 61l-648 1128q14 -102 15 -217v-911q0 -61 -76 -61t-76 61z" />
<glyph unicode="O" horiz-adv-x="1323" d="M72 717q0 342 146.5 541.5t443 199.5t443 -199.5t146.5 -541.5q0 -340 -147.5 -540t-442 -200t-442 200t-147.5 540zM258 717q0 -604 403.5 -604t403.5 604q0 606 -403.5 606t-403.5 -606z" />
<glyph unicode="P" horiz-adv-x="1116" d="M133 57v1188q0 88 35 138.5t133 50.5h324q195 0 317.5 -116t122.5 -312q0 -188 -118 -306t-304 -118h-336v-525q0 -75 -86 -75h-2q-86 0 -86 75zM307 731h320q121 0 191.5 76t70.5 199q0 119 -67.5 198.5t-182.5 79.5h-277q-31 0 -43 -13.5t-12 -45.5v-494z" />
<glyph unicode="Q" horiz-adv-x="1323" d="M72 717q0 342 146.5 541.5t443 199.5t443 -199.5t146.5 -541.5q0 -471 -266 -649l156 -201q23 -35 1 -55.5t-63 -20.5q-31 0 -47 2t-40.5 15.5t-43.5 41.5l-106 152q-80 -25 -180 -25q-293 0 -441.5 200t-148.5 540zM256 717q0 -604 406 -604q45 0 96 10l-92 129 q-18 31 -4 51.5t45 26.5q16 3 29 3q25 0 40 -9q25 -15 49 -50l68 -88q172 140 172 531q0 606 -403 606q-406 0 -406 -606z" />
<glyph unicode="R" horiz-adv-x="1177" d="M133 59v1186q0 88 36 138.5t134 50.5h324q197 0 318.5 -107.5t121.5 -302.5q0 -156 -87 -247t-239 -122q113 -53 197 -227q14 -29 50 -112t63.5 -138t60.5 -108q14 -24 14 -41q0 -32 -47 -43q-21 -4 -37 -4q-51 0 -79 36q-39 47 -68 99.5t-63.5 136.5t-47.5 108 q-63 141 -140 198.5t-202 57.5h-135v-559q0 -77 -84 -77h-2q-88 0 -88 77zM307 766h260q141 0 232.5 62.5t91.5 195.5q0 119 -67.5 189.5t-184.5 70.5h-274q-57 0 -58 -59v-459z" />
<glyph unicode="S" horiz-adv-x="1153" d="M31 393q0 31 25.5 49.5t60.5 18.5q84 0 88 -72q2 -121 106.5 -197.5t251.5 -76.5q131 0 226.5 73.5t95.5 200.5q0 53 -23.5 96t-53.5 69t-83 48.5t-87 32.5t-91 24q-63 16 -76.5 19.5t-72 21t-76 26.5t-64.5 30.5t-64.5 40t-48 48t-43 61.5t-22.5 74t-10 91 q0 188 138 289.5t329 101.5q203 0 335 -84t164 -262q1 -9 1 -18q0 -62 -79 -62q-76 0 -90 66q-27 113 -121 166t-217 53q-111 0 -193.5 -64.5t-82.5 -177.5q0 -41 13.5 -74.5t45 -58t56 -42t74 -33t71 -21.5t72.5 -19q80 -20 119.5 -31.5t109.5 -36t108 -53t79.5 -70.5 t60 -101.5t18.5 -132.5q0 -209 -150.5 -322t-361.5 -113q-227 0 -379.5 105.5t-158.5 316.5z" />
<glyph unicode="T" horiz-adv-x="1007" d="M31 1354q-1 80 69 80h807q70 0 70 -80q0 -78 -70 -78h-315v-1219q0 -75 -86 -75h-2q-86 0 -86 75v1219h-318q-70 0 -69 78z" />
<glyph unicode="U" horiz-adv-x="1239" d="M133 444v922q0 76 86 76q88 0 88 -76v-950q0 -29 3 -55.5t20.5 -73.5t48.5 -80t93.5 -58.5t146 -25.5t146 25.5t93.5 59.5t49.5 80t21.5 73.5t3 54.5v950q0 76 86 76q88 0 88 -76v-922q0 -238 -136 -353.5t-351.5 -115.5t-350.5 116t-135 353z" />
<glyph unicode="V" horiz-adv-x="1157" d="M37 1366q-5 15 -5 27q0 21 16 31q24 18 67 18q49 0 68.5 -15.5t33.5 -60.5l287 -879q61 -190 76 -245q28 130 73 245l287 879q14 45 33.5 60.5t68.5 15.5q43 0 68 -18q16 -11 16 -31q0 -12 -6 -27l-444 -1307q-27 -77 -92 -77h-2q-37 0 -60.5 14t-40.5 63z" />
<glyph unicode="W" horiz-adv-x="1630" d="M35 1366q-4 12 -4 22q1 22 19 36q26 18 69 18q49 0 67.5 -15.5t28.5 -60.5l207 -879q41 -172 53 -247q12 102 49 247l207 879q18 76 96 76q80 0 99 -76l207 -879q47 -213 51 -247q8 66 49 247l207 879q10 45 29.5 60.5t68.5 15.5q61 0 61 -49q0 -12 -4 -27l-325 -1307 q-12 -51 -35 -64t-74 -13q-72 0 -92 77l-219 881q-16 63 -33 199q-20 -129 -37 -199l-221 -881q-12 -51 -34.5 -64t-71.5 -13q-74 0 -93 77z" />
<glyph unicode="X" horiz-adv-x="1091" d="M41 57l401 688l-360 619q-9 22 -9 38t9 24q18 16 59 16q66 0 95.5 -15.5t54.5 -62.5l256 -471l254 471q25 47 55.5 62.5t93.5 15.5q58 0 58 -34q0 -17 -15 -44l-350 -602l408 -705q11 -19 11 -33q0 -16 -14 -25q-26 -17 -71 -17q-33 0 -48.5 2t-41 19t-45.5 54l-303 545 l-306 -545q-20 -37 -40.5 -54t-34 -19t-41.5 -2q-45 0 -72 18q-15 10 -15 26q0 13 11 31z" />
<glyph unicode="Y" horiz-adv-x="1017" d="M20 1358q-9 17 -9 32q0 16 11 28q23 24 64 24q31 0 46 -3t33.5 -17.5t35.5 -45.5l264 -528q25 -45 43 -98q16 49 43 102l262 524q20 43 45 54.5t72 11.5q43 0 66 -20q12 -9 12 -24q0 -17 -13 -40l-401 -748v-551q0 -77 -84 -77h-2q-88 0 -88 77v551z" />
<glyph unicode="Z" horiz-adv-x="1024" d="M49 139l592 973q74 117 119 164h-660q-70 0 -69 80q-1 78 69 78h783q69 0 69 -76v-2q0 -33 -12 -53l-594 -975q-68 -109 -119 -170h656q70 0 69 -78q0 -80 -69 -80h-783q-69 0 -69 78q0 31 18 61z" />
<glyph unicode="[" horiz-adv-x="514" d="M133 -231v1540q0 68 31 96.5t92 28.5h207q41 0 41 -54q0 -57 -41 -57h-158q-33 0 -33 -35v-1499q0 -37 33 -37h158q41 0 41 -55q0 -53 -41 -53h-207q-63 0 -93 28.5t-30 96.5z" />
<glyph unicode="\" horiz-adv-x="966" d="M18 1378q-27 59 39 60q70 0 97 -60l794 -1677q29 -59 -45 -59q-61 0 -90 59z" />
<glyph unicode="]" horiz-adv-x="516" d="M10 -303q0 55 43 55h158q31 0 31 37v1499q0 35 -31 35h-158q-43 0 -43 57q0 53 43 54h205q125 0 125 -125v-1540q0 -68 -30.5 -96.5t-94.5 -28.5h-205q-43 0 -43 53z" />
<glyph unicode="^" horiz-adv-x="989" d="M88 864l260 477q33 59 60.5 82t87 23t86 -22.5t59.5 -82.5l260 -477q41 -78 -37 -80q-41 -2 -56 8.5t-36 43.5l-262 434q-14 29 -31 0l-262 -434q-18 -33 -34.5 -43.5t-57.5 -8.5q-78 2 -37 80z" />
<glyph unicode="_" horiz-adv-x="1091" d="M10 -215q0 74 66 74h942q63 0 63 -74q0 -72 -63 -72h-942q-66 0 -66 72z" />
<glyph unicode="`" horiz-adv-x="430" d="M112 1416.5q19 21.5 62 23.5q84 2 105 -45l88 -209q6 -16 -6 -30.5t-37 -14.5q-49 -2 -72 33l-139 190q-20 31 -1 52.5z" />
<glyph unicode="a" horiz-adv-x="1024" d="M51 293q0 369 559 369q12 0 135 -5q0 125 -18 183q-41 123 -242 123q-127 0 -227 -78q-25 -21 -51 -21q-27 0 -55 23q-25 22 -25 47q0 29 35 59q115 96 348 97q209 0 300 -106.5t91 -326.5v-450q0 -78 8 -133q1 -9 1 -17q0 -53 -58 -63q-11 -1 -21 -1q-63 0 -73 60 q-12 61 -13 137q-104 -219 -360 -219q-145 0 -239.5 85t-94.5 237zM223 287q0 -92 54.5 -140.5t140.5 -48.5q145 0 237 109q92 107 92 280q0 23 -2 48q-98 6 -147 6q-94 0 -171 -17.5t-140.5 -78t-63.5 -158.5z" />
<glyph unicode="b" d="M133 51v1321q0 72 80 72t80 -72v-454q122 169 315 169h2q397 0 398 -557q0 -246 -101.5 -401.5t-318.5 -155.5q-98 0 -182 56.5t-123 136.5v-115q0 -71 -72 -71h-2q-76 0 -76 71zM293 508q0 -162 68.5 -277.5t218.5 -115.5q254 0 254 415.5t-254 415.5q-141 0 -214 -102 t-73 -252v-84z" />
<glyph unicode="c" horiz-adv-x="970" d="M72 528q0 553 452 553q94 0 166 -30.5t113 -80.5t62.5 -98.5t29.5 -95.5q2 -11 2 -21q0 -58 -61 -65h-9q-70 0 -84 58q-49 204 -217 204h-2q-84 0 -142 -37.5t-87 -104.5t-41 -134.5t-12 -147t12 -147.5t41 -134.5t87 -104.5t142 -38q170 0 219 205q13 58 82 58h11 q39 -3 52 -23q9 -14 9 -38q0 -11 -2 -25q-8 -47 -29.5 -94.5t-62.5 -96.5t-113 -79.5t-166 -30.5h-2q-450 0 -450 548z" />
<glyph unicode="d" d="M72 530q0 557 399 557q193 0 315 -169v454q0 33 21.5 52.5t58.5 19.5q80 0 80 -72v-1321q0 -71 -74 -71h-2q-74 0 -73 71v115q-37 -80 -122 -136.5t-183 -56.5q-217 0 -318.5 156t-101.5 401zM248 530.5q0 -415.5 252 -415.5q150 0 218 115.5t68 277.5v84 q0 150 -72.5 252t-213.5 102q-252 0 -252 -415.5z" />
<glyph unicode="e" horiz-adv-x="1038" d="M74 526q0 240 116.5 402t352.5 162q195 0 311 -120q112 -116 111 -300v-13q0 -68 -32 -104.5t-136 -36.5h-545q2 -174 72.5 -290.5t228.5 -116.5q88 0 155.5 48t94.5 134q8 27 33.5 42t56.5 11q33 -4 50 -25.5t9 -56.5q-33 -137 -147.5 -214t-259.5 -77q-156 0 -265.5 80 t-157.5 203t-48 272zM256 639h510q43 4 43 45q-1 128 -73 207q-68 74 -187 74q-127 0 -208 -100.5t-85 -225.5z" />
<glyph unicode="f" horiz-adv-x="727" d="M31 997q0 66 55 66h129v82q0 314 304 314q16 0 32 -1q61 -4 100 -14q45 -12 45 -60q0 -10 -2 -20q-5 -54 -50 -54q-4 0 -9 1q-53 8 -94 8q-166 -4 -166 -174v-82h205q57 0 57 -66q0 -63 -57 -63h-205v-883q0 -70 -79 -70l-1 1q-80 0 -80 69v883h-129q-55 0 -55 63z" />
<glyph unicode="g" d="M72 530q0 246 102 401.5t320 155.5q186 0 303 -176v99q0 71 71 71h2q76 0 76 -71v-910q0 -193 -100.5 -322.5t-284.5 -154.5q-58 -8 -113 -8q-116 0 -221 35q-39 12 -53 30.5t-10 57.5q8 58 57 58q14 0 33 -5q111 -33 209 -33q42 0 82 6q242 41 241 338v52 q-35 -68 -117.5 -114t-176.5 -46q-219 0 -319.5 146.5t-100.5 389.5zM246 530q0 -61 5 -112t21.5 -105.5t43 -91.5t74 -61.5t110.5 -24.5q147 0 216.5 102.5t69.5 249.5v97q0 147 -68.5 254.5t-209.5 107.5q-262 0 -262 -416z" />
<glyph unicode="h" horiz-adv-x="1056" d="M133 51v1321q0 72 80 72t80 -72v-485q123 205 328 205q102 0 168.5 -36t99.5 -103.5t44 -140.5t11 -173v-590q0 -70 -79 -70l-1 1q-80 0 -80 69v635q0 266 -188 266q-137 0 -220 -111.5t-83 -254.5v-533q0 -72 -79 -72l-1 1q-80 0 -80 71z" />
<glyph unicode="i" horiz-adv-x="458" d="M133 1343q0 101 96.5 101t96.5 -101q0 -108 -95 -108h-2q-57 0 -76.5 27.5t-19.5 80.5zM150 49v961q0 72 79.5 72t79.5 -72v-961q0 -70 -78 -70l-1 1q-80 0 -80 69z" />
<glyph unicode="j" horiz-adv-x="464" d="M-106 -262q13 46 52 46q10 0 21 -3q39 -10 60 -8q43 2 71.5 22.5t40 57t15.5 69.5t4 78v1010q0 72 78 72h2q79 -1 79 -72v-1010q0 -82 -10 -139.5t-39.5 -112.5t-91 -84t-156.5 -29q-41 1 -86 17q-45 17 -45 58q0 13 5 28zM141 1343q1 101 97 101q53 0 73.5 -25.5 t20.5 -75.5q0 -53 -19.5 -79.5t-74.5 -26.5q-57 0 -77 26.5t-20 79.5z" />
<glyph unicode="k" horiz-adv-x="921" d="M133 53v1321q0 72 78 72q82 0 82 -72v-776l397 428q46 50 93 50q15 0 30 -5q41 -11 48 -39q1 -6 1 -12q0 -23 -22 -49l-289 -307l330 -582q19 -31 19 -54q0 -29 -32 -44q-18 -8 -44 -8q-10 0 -22 1q-42 5 -59 37l-294 541l-156 -166v-336q0 -73 -80 -73h-2q-78 0 -78 73z " />
<glyph unicode="l" horiz-adv-x="425" d="M133 49v1323q0 72 80 72t80 -72v-1323q0 -72 -80 -72t-80 72z" />
<glyph unicode="m" horiz-adv-x="1630" d="M133 49v950q0 70 78 70q72 0 72 -70v-143q63 123 142 174t181 51q111 0 189 -69.5t98 -153.5q123 223 326 223q94 0 158.5 -37.5t92 -100t38 -115t10.5 -111.5v-668q0 -70 -79 -70l-1 1q-80 0 -80 69v658q0 233 -172 233q-111 0 -196 -93t-85 -210v-588q0 -70 -79 -70 l-1 1q-80 0 -80 69v629q0 262 -172 262q-119 0 -199.5 -96t-80.5 -230v-565q0 -70 -79 -70l-1 1q-80 0 -80 69z" />
<glyph unicode="n" horiz-adv-x="1056" d="M133 49v963q0 69 74 69h2q74 0 74 -69v-156q117 225 346 225q76 0 135 -26.5t92 -65.5t54.5 -91t27.5 -95t6 -86v-668q0 -70 -79 -70l-1 1q-80 0 -80 69v658q0 94 -42 163.5t-146 69.5q-137 0 -220 -111.5t-83 -255.5v-524q0 -70 -79 -70l-1 1q-80 0 -80 69z" />
<glyph unicode="o" horiz-adv-x="1050" d="M72 528q0 553 454 553q453 0 453 -553q0 -548 -451 -548h-2h-2q-452 0 -452 548zM242 528.5q0 -436.5 284.5 -436.5t284.5 436.5t-284.5 436.5t-284.5 -436.5z" />
<glyph unicode="p" horiz-adv-x="1081" d="M133 -311v1323q0 69 76 69h2h2q72 0 72 -69v-115q121 190 325 190q399 0 400 -557q0 -246 -101.5 -401.5t-320.5 -155.5q-180 0 -293 166v-450q0 -70 -82 -70q-80 0 -80 70zM295 496q0 -143 74.5 -262t212.5 -119q252 0 252 415.5t-252 415.5q-137 0 -212 -105.5 t-75 -244.5v-100z" />
<glyph unicode="q" d="M72 530q0 557 397 557q201 0 328 -190v113q0 71 71 71h2q76 0 76 -71v-1321q0 -72 -80 -72t-80 72v450q-117 -166 -294 -166q-217 0 -318.5 156t-101.5 401zM246 530.5q0 -415.5 254 -415.5q137 0 211.5 118t74.5 261v102q0 137 -74.5 243.5t-211.5 106.5 q-254 0 -254 -415.5z" />
<glyph unicode="r" horiz-adv-x="720" d="M133 49v961q0 72 75 72h1q76 0 76 -72v-140q43 94 126 159q78 61 170 61h11q76 -4 76 -80q0 -43 -18.5 -58.5t-57.5 -19.5q-154 -10 -226.5 -126t-72.5 -274v-483q0 -70 -79 -70l-1 1q-80 0 -80 69z" />
<glyph unicode="s" horiz-adv-x="948" d="M74 270q-2 9 -2 18q0 24 14 42q18 24 49 24q84 0 98 -59q27 -100 90.5 -147.5t190.5 -47.5q84 0 149.5 51.5t65.5 131.5q0 49 -23.5 82.5t-70.5 54t-79 30t-89 19.5q-72 14 -111 23.5t-100 33t-93 53t-57.5 80t-25.5 117.5q0 152 113.5 233t267.5 81q322 0 383 -238 q4 -15 4 -28q0 -54 -80 -54q-72 0 -82 49q-25 143 -219 144q-84 0 -155.5 -42t-71.5 -124q0 -29 11 -53.5t34.5 -41t46 -28.5t58.5 -20.5t55.5 -12.5t54.5 -10q86 -14 144 -31.5t122.5 -53.5t97.5 -98.5t33 -150.5q0 -164 -121 -245t-284 -81q-180 0 -287.5 79t-130.5 220z " />
<glyph unicode="t" horiz-adv-x="716" d="M31 995q0 66 57 66h137v205q0 72 79 72h1q80 0 80 -72v-205h195q57 0 57 -66q0 -63 -57 -63h-195v-602q0 -203 154 -203q27 0 75 8q16 4 28 4q43 0 44 -49q0 -66 -47 -84q-45 -16 -94 -16q-180 0 -250 89t-70 251v602h-137q-57 0 -57 63z" />
<glyph unicode="u" horiz-adv-x="1056" d="M113 375v635q0 71 79.5 71t79.5 -71v-623q0 -129 37 -200.5t152 -71.5q135 0 218 114.5t83 257.5v523q0 71 80 71h2q80 0 80 -71v-949q0 -71 -78 -71h-2q-70 0 -70 71v142q-121 -223 -340 -223q-322 0 -321 395z" />
<glyph unicode="v" horiz-adv-x="931" d="M39 1001q-6 18 -6 33q0 47 69 47q43 0 60.5 -14t32.5 -57l231 -676q29 -82 41 -148q12 70 41 150l231 674q14 41 35 56t64 15q62 0 62 -44q0 -15 -7 -36l-334 -950q-22 -67 -92 -67t-94 67z" />
<glyph unicode="w" horiz-adv-x="1341" d="M37 1001q-5 17 -5 30q0 50 74 50q43 0 58.5 -14t28.5 -57l194 -668q4 -14 12.5 -53t12.5 -53q8 59 22 108l180 682q4 16 7.5 25.5t16.5 18.5t35.5 9t36 -9t17.5 -19.5t10 -28.5l197 -676q12 -47 24 -110q0 4 23 114l178 660q10 43 29.5 57t62.5 14q43 -1 55 -21 q5 -9 5 -22q0 -16 -8 -37l-271 -950q-10 -35 -26.5 -49t-49.5 -14q-33 2 -48 15t-25 48l-209 686l-195 -686q-16 -63 -78 -63q-35 2 -50 15t-25 48z" />
<glyph unicode="x" horiz-adv-x="909" d="M47 61l318 506l-275 437q-20 41 -3 59t65 18q29 0 42 -2t29.5 -14t30.5 -37l199 -344l198 344q20 37 41 45t62 8q45 0 66.5 -16t-1.5 -53l-278 -445l325 -518q12 -19 12 -33q0 -13 -10 -20q-22 -16 -67 -16q-39 0 -59.5 9t-43.5 46l-245 416l-246 -416q-23 -37 -43.5 -46 t-59.5 -9q-74 0 -74 37q0 18 17 44z" />
<glyph unicode="y" horiz-adv-x="937" d="M37 1012q-5 13 -5 24q0 17 14 28q24 17 67 17q72 0 96 -69l227 -635q20 -55 37 -131q10 57 37 133l215 633q23 69 92 69h2q43 0 69 -17q19 -12 19 -32q0 -9 -4 -20l-399 -1114q-10 -29 -17.5 -47.5t-19.5 -46t-22.5 -46t-28 -40t-33.5 -35t-40 -26.5t-49.5 -18.5 t-58 -5.5t-69.5 9q-54 12 -54 73q0 8 1 17q6 56 54 56q14 0 32 -5q19 -4 34 -4q38 0 59 21q30 28 52 94l49 147z" />
<glyph unicode="z" horiz-adv-x="839" d="M31 63q0 35 16 60l461 692q49 74 92 117h-475q-57 0 -57 63q0 66 57 66h606q57 0 57 -66q0 -29 -14 -49l-469 -702q-53 -74 -90 -115h537q57 0 57 -66q0 -63 -57 -63h-664q-57 0 -57 63z" />
<glyph unicode="{" horiz-adv-x="571" d="M72 537.5q0 50.5 39 62.5q96 29 96 180v373q0 152 79 218.5t234 62.5q39 0 39 -55.5t-39 -55.5q-96 -2 -135 -46t-39 -140v-363q0 -178 -127 -237q127 -55 127 -236v-362q0 -96 40 -140.5t134 -46.5q39 -2 39 -56t-39 -54q-156 0 -234.5 65.5t-78.5 214.5v373 q0 147 -96 180q-39 12 -39 62.5z" />
<glyph unicode="|" horiz-adv-x="411" d="M133 -313v1685q0 66 70 66q76 0 76 -66v-1685q0 -68 -76 -68q-70 0 -70 68z" />
<glyph unicode="}" horiz-adv-x="571" d="M12 -304q0 54 39 56q94 2 134 46t40 141v362q0 180 127 236q-127 59 -127 237v363q0 96 -39 140t-135 46q-39 0 -39 55.5t39 55.5q156 4 235 -62.5t79 -218.5v-373q0 -151 96 -180q39 -12 39 -62.5t-39 -62.5q-96 -33 -96 -180v-373q0 -150 -79 -215t-235 -65 q-39 0 -39 54z" />
<glyph unicode="~" horiz-adv-x="1181" d="M84 672q190 244 530 100q248 -104 394 23q49 45 84 10q33 -33 6 -72q-104 -133 -244 -152.5t-287 52.5q-250 106 -393 -23q-51 -43 -86 -10q-35 35 -4 72z" />
<glyph unicode="&#xad;" horiz-adv-x="700" d="M92 547q0 74 64 74h389q63 0 63 -74q0 -72 -63 -72h-389q-63 0 -64 72z" />
<glyph unicode="&#x401;" horiz-adv-x="1058" d="M133 188v1057q0 88 36 138.5t132 50.5h617q70 0 69 -80q0 -78 -69 -78h-556q-55 0 -55 -57v-398h484q66 0 65.5 -75.5t-65.5 -75.5h-484v-455q0 -57 55 -57h556q70 0 69 -80q0 -78 -69 -78h-617q-96 0 -132 50t-36 138zM295 1665q0 51 22.5 77.5t80 26.5t79 -26.5 t21.5 -77.5q0 -55 -21.5 -83t-79.5 -28q-59 0 -80.5 28t-21.5 83zM623 1665q0 51 21.5 77.5t78.5 26.5q59 0 80.5 -25.5t21.5 -78.5q0 -55 -21.5 -83t-80.5 -28t-79.5 28t-20.5 83z" />
<glyph unicode="&#x402;" horiz-adv-x="1470" d="M0 1350q0 82 68 82h804q72 0 72 -82q0 -78 -72 -78h-313v-461q82 49 186.5 75.5t194.5 22.5q229 -8 350 -142t117 -323q-2 -184 -124 -320t-331 -138q-160 0 -256 69q-23 16 -27.5 46t9.5 49q29 39 88 8q61 -33 174 -33q143 2 224 100.5t81 229.5t-81 221t-228 98 q-211 4 -377 -100v-611q0 -76 -84 -75q-92 0 -92 75v1209h-315q-68 0 -68 78z" />
<glyph unicode="&#x403;" horiz-adv-x="890" d="M133 66v1175q0 90 35 140.5t131 50.5h502q70 0 69 -82q0 -78 -69 -78h-439q-59 0 -59 -60v-1146q0 -72 -84 -72q-86 0 -86 72zM444 1573l88 203q27 47 109 43q43 -2 62.5 -21.5t1.5 -48.5l-144 -188q-23 -35 -72 -35q-27 2 -39 16t-6 31z" />
<glyph unicode="&#x404;" horiz-adv-x="1214" d="M72 717q0 346 142 543.5t448 197.5q231 0 355 -128t144 -331q8 -70 -76 -75q-80 0 -88 63q-23 145 -106.5 240.5t-228.5 95.5q-369 0 -402 -498h506q70 0 70 -77q0 -80 -70 -80h-508q12 -555 404 -555q145 0 229 94t106 242q10 66 88 61q84 -2 76 -76q-20 -203 -144 -330 t-355 -127q-305 0 -447.5 197t-142.5 543z" />
<glyph unicode="&#x405;" horiz-adv-x="1153" d="M31 393q0 31 25.5 49.5t60.5 18.5q84 0 88 -72q2 -121 106.5 -197.5t251.5 -76.5q131 0 226.5 73.5t95.5 200.5q0 53 -23.5 96t-53.5 69t-83 48.5t-87 32.5t-91 24q-63 16 -76.5 19.5t-72 21t-76 26.5t-64.5 30.5t-64.5 40t-48 48t-43 61.5t-22.5 74t-10 91 q0 188 138 289.5t329 101.5q203 0 335 -84t164 -262q12 -80 -78 -80q-76 0 -90 66q-27 113 -121 166t-217 53q-111 0 -193.5 -64.5t-82.5 -177.5q0 -41 13.5 -74.5t45 -58t56 -42t74 -33t71 -21.5t72.5 -19q80 -20 119.5 -31.5t109.5 -36t108 -53t79.5 -70.5t60 -101.5 t18.5 -132.5q0 -209 -150.5 -322t-361.5 -113q-227 0 -379.5 105.5t-158.5 316.5z" />
<glyph unicode="&#x406;" horiz-adv-x="440" d="M133 59v1307q0 76 86 76q88 0 88 -76v-1307q0 -78 -88 -77q-86 0 -86 77z" />
<glyph unicode="&#x407;" horiz-adv-x="550" d="M41 1665q0 51 22.5 77.5t80 26.5t79 -26.5t21.5 -77.5q0 -55 -20.5 -83t-80 -28t-81 28t-21.5 83zM188 57v1307q0 78 88 78q86 0 86 -78v-1307q0 -76 -86 -75q-88 0 -88 75zM307 1665q0 51 22.5 77.5t80 26.5t79 -26.5t21.5 -77.5q0 -55 -21.5 -83t-78.5 -28 q-59 0 -81 28t-22 83z" />
<glyph unicode="&#x408;" horiz-adv-x="774" d="M12 90q4 35 25.5 52.5t56.5 7.5q80 -25 133 -25q147 0 193.5 74.5t46.5 238.5v928q0 76 88 76q86 0 86 -76v-924q0 -207 -96 -338t-297 -131q-84 0 -182 27q-59 18 -54 90z" />
<glyph unicode="&#x409;" horiz-adv-x="1878" d="M2 78q4 31 26.5 56.5t55.5 23.5q90 -12 117 82q31 78 41 215q16 166 33.5 467t19.5 319q6 90 44 140.5t134 50.5h418q98 0 134 -51.5t36 -139.5v-381h336q184 0 302 -116.5t118 -303.5q0 -197 -123 -318.5t-314 -121.5h-325q-98 0 -134 49t-36 137v1026q0 59 -54 60h-303 q-33 0 -45 -13.5t-14 -46.5q-20 -190 -59 -780q-20 -207 -54 -276q-68 -172 -243 -168q-53 0 -83 19.5t-28 70.5zM1061 213q0 -33 11 -45t44 -12h277q115 0 181 81.5t66 202.5t-69.5 191.5t-190.5 70.5h-319v-489z" />
<glyph unicode="&#x40a;" horiz-adv-x="1880" d="M133 55v1307q0 76 86 76q88 0 88 -76v-508h580v518q0 74 86 74q90 0 90 -74v-518h334q186 0 304 -113.5t118 -300.5q0 -197 -124 -318.5t-317 -121.5h-321q-98 0 -134 49t-36 137v508h-580v-639q0 -72 -88 -71q-86 0 -86 71zM1063 213q0 -33 11 -45t42 -12h275 q115 0 183 81.5t68 202.5t-70.5 187.5t-193.5 66.5h-315v-481z" />
<glyph unicode="&#x40b;" horiz-adv-x="1452" d="M0 1350q0 82 70 82h804q66 0 66 -82q0 -78 -66 -78h-313v-461q78 47 182.5 74.5t196.5 23.5q430 -14 430 -458v-388q0 -76 -88 -75.5t-88 75.5v394q0 160 -56.5 234.5t-203.5 82.5q-215 4 -373 -100v-611q0 -76 -88 -75q-86 0 -86 75v1209h-317q-70 0 -70 78z" />
<glyph unicode="&#x40c;" horiz-adv-x="1052" d="M133 55v1307q0 76 86 76q84 0 84 -76v-518q131 2 205 65.5t141 186.5q23 35 72 136t84 150q53 61 127 54q90 -20 29 -109q-53 -80 -160 -291q-43 -78 -110.5 -144.5t-145.5 -96.5q242 -53 346 -375l14 -49t14.5 -46.5t12.5 -39t12 -37.5t11.5 -32.5t12.5 -33t12 -29 t13 -30.5t13.5 -27.5t15.5 -29.5q29 -59 -47 -80q-68 -12 -101 28q-18 23 -33.5 49.5t-31.5 68.5t-23.5 60.5t-27 78t-21.5 67.5q-66 199 -157 290t-277 85v-658q0 -72 -84 -71q-86 0 -86 71zM465 1573l90 203q23 47 98 43q47 -2 65.5 -21.5t0.5 -48.5l-137 -188 q-23 -35 -76 -35q-27 4 -38 17t-3 30z" />
<glyph unicode="&#x40e;" horiz-adv-x="1114" d="M29 1364q-18 41 6 59.5t67 18.5q20 0 36 -3t24 -5t17 -12.5t11.5 -14.5t10.5 -20.5t10 -22.5l319 -774l54 -137l47 139l282 772q12 31 19.5 44t31 23.5t64.5 10.5q88 0 57 -78l-413 -1088q-72 -176 -141.5 -237.5t-215.5 -48.5q-78 0 -75 80q2 39 15 56t54 13 q66 -6 108 15.5t53 42t30 65.5zM268 1700q-27 61 23 78q53 20 86 -19q72 -88 184 -88q115 0 187 88q35 39 86 19q49 -16 22 -78q-29 -61 -106.5 -110.5t-188.5 -49.5q-109 0 -186.5 49t-106.5 111z" />
<glyph unicode="&#x40f;" horiz-adv-x="1228" d="M133 186v1176q0 76 88 76q37 0 63.5 -18.5t26.5 -57.5v-1149q0 -33 10.5 -45t43.5 -12h501q33 0 44.5 12t11.5 45v1149q0 76 88 76q86 0 86 -76v-1176q0 -88 -36 -137t-132 -49h-230v-295q0 -74 -86 -74q-78 0 -77 74v295h-230q-98 0 -135 49t-37 137z" />
<glyph unicode="&#x410;" horiz-adv-x="1167" d="M37 57l436 1307q27 78 110.5 78t110.5 -78l436 -1307q23 -76 -63 -75q-49 0 -76.5 16t-40.5 59l-116 361h-500l-117 -361q-12 -43 -39.5 -59t-79.5 -16q-84 0 -61 75zM377 553h414l-140 436q-23 66 -67 264q-47 -199 -68 -264z" />
<glyph unicode="&#x411;" horiz-adv-x="1118" d="M133 188v1057q0 88 36 138.5t132 50.5h586q70 0 69 -80q0 -78 -69 -78h-531q-55 0 -55 -57v-377h344q188 0 305 -112t117 -298q0 -195 -124 -313.5t-316 -118.5h-326q-96 0 -132 50t-36 138zM301 215q0 -57 55 -57h283q115 0 183.5 77.5t68.5 196.5q0 121 -69.5 186.5 t-194.5 65.5h-326v-469z" />
<glyph unicode="&#x412;" horiz-adv-x="1191" d="M133 188v1057q0 88 36 138.5t132 50.5h381q170 0 284.5 -90.5t114.5 -258.5q0 -123 -61.5 -205.5t-173.5 -117.5q131 -35 202.5 -131t71.5 -234q0 -193 -120.5 -295t-317.5 -102h-381q-96 0 -132 50t-36 138zM301 209q0 -61 55 -62h318q119 0 195.5 68t76.5 188 q0 139 -81 209t-218 70h-346v-473zM301 819h303q305 0 305 248q0 113 -73.5 167t-188.5 54h-291q-55 0 -55 -63v-406z" />
<glyph unicode="&#x413;" horiz-adv-x="882" d="M133 70v1175q0 88 36 138.5t134 50.5h500q70 0 69 -80q0 -78 -69 -78h-438q-57 0 -58 -57v-1149q0 -78 -86 -78q-88 0 -88 78z" />
<glyph unicode="&#x414;" horiz-adv-x="1230" d="M0 18q0 102 74 132q119 45 147 258q35 250 62 837q8 90 45 139.5t135 49.5h418q98 0 134 -50.5t36 -138.5v-1087q84 4 121.5 -30t37.5 -110v-251q0 -76 -77.5 -76t-77.5 76v200q0 33 -39 33h-821q-39 0 -39 -33v-200q0 -76 -80 -76q-76 0 -76 76v251zM319 158h558v1061 q0 59 -58 59h-305q-57 0 -59 -59q-2 -20 -14.5 -207t-25 -342.5t-26.5 -270.5q-15 -141 -70 -241z" />
<glyph unicode="&#x415;" horiz-adv-x="1058" d="M133 188v1057q0 88 36 138.5t132 50.5h617q70 0 69 -80q0 -78 -69 -78h-556q-55 0 -55 -57v-398h484q66 0 65.5 -75.5t-65.5 -75.5h-484v-455q0 -57 55 -57h556q70 0 69 -80q0 -78 -69 -78h-617q-96 0 -132 50t-36 138z" />
<glyph unicode="&#x416;" horiz-adv-x="1560" d="M63 68q16 29 27.5 57.5t24 68t17.5 63.5t20.5 85t21.5 90q80 319 301 367q-121 49 -223 252q-18 35 -44 93t-49.5 103t-47.5 82q-68 100 32 111q80 10 123 -51q23 -33 44.5 -70t32.5 -61.5t33.5 -72.5t33.5 -73q109 -242 286 -260v512q0 78 84 78t84 -78v-512 q178 18 287 260q10 25 32.5 73t34 72.5t33 61.5t43.5 70q43 61 123 51q100 -10 33 -111q-25 -37 -48.5 -82t-49 -103.5t-43.5 -92.5q-102 -203 -224 -252q221 -47 301 -367q6 -29 21.5 -90t21 -85t17.5 -63.5t23.5 -68.5t27.5 -57q37 -66 -41 -82q-68 -14 -106 30 q-27 33 -46.5 83.5t-29.5 87t-24.5 101t-20.5 91.5q-41 170 -123 254t-242 82v-658q0 -76 -84 -75.5t-84 75.5v658q-160 2 -241.5 -82t-122.5 -254q-6 -27 -20.5 -91.5t-25 -101t-29.5 -87t-46 -83.5q-39 -45 -107 -30q-78 16 -41 82z" />
<glyph unicode="&#x417;" horiz-adv-x="1110" d="M53 375q-2 29 14.5 50t67.5 24q68 -1 74 -54q20 -137 110.5 -207.5t233.5 -70.5q131 0 218 73.5t87 208.5q0 88 -29.5 145.5t-86 84t-113 36t-133.5 9.5q-61 0 -62 74q0 76 62 75q324 0 323 246q0 117 -81 181.5t-193 64.5q-279 0 -299 -246q-6 -55 -82 -55q-78 0 -78 69 q14 184 139 281.5t316 97.5q182 0 320 -98t138 -283q0 -246 -264 -323q139 -18 221 -110.5t82 -237.5q0 -211 -146.5 -325t-352.5 -114q-195 0 -334 113t-152 291z" />
<glyph unicode="&#x418;" horiz-adv-x="1277" d="M133 57v1307q0 78 88 78q86 0 86 -78v-1071q33 72 92 166l580 944q23 39 78 39q88 0 88 -78v-1307q0 -76 -88 -75q-86 0 -86 75v1076q-25 -61 -78 -150l-596 -967q-18 -35 -76 -34q-88 0 -88 75z" />
<glyph unicode="&#x419;" horiz-adv-x="1277" d="M133 57v1307q0 78 88 78q86 0 86 -78v-1071q33 72 92 166l580 944q23 39 80 39q86 0 86 -78v-1307q0 -76 -86 -75q-88 0 -88 75v1076q-25 -61 -78 -150l-594 -967q-20 -35 -78 -34q-88 0 -88 75zM360 1700q-27 61 23 78q51 20 86 -19q72 -88 184 -88q115 0 187 88 q33 39 86 19q49 -16 22 -78q-29 -61 -106.5 -110.5t-188.5 -49.5q-109 0 -186.5 49t-106.5 111z" />
<glyph unicode="&#x41a;" horiz-adv-x="1087" d="M133 57v1307q0 78 86 78q88 0 88 -78v-518q92 2 161 41t103.5 84t79.5 125q14 25 67.5 131t92.5 159q47 66 125 52q88 -16 29 -109q-57 -84 -162 -289q-39 -78 -107.5 -145.5t-148.5 -99.5q129 -27 215 -129.5t131 -241.5q82 -258 133 -356q35 -66 -47 -82 q-68 -16 -107 30q-20 27 -40.5 71t-32 75t-31.5 94t-27 84q-66 197 -157.5 289t-276.5 86v-658q0 -76 -88 -75q-86 0 -86 75z" />
<glyph unicode="&#x41b;" horiz-adv-x="1216" d="M23 82q2 29 25.5 54.5t55.5 21.5q88 -10 117 84q29 82 41 217q33 340 53 786q8 92 46 140.5t135 48.5h417q98 0 134 -49.5t36 -139.5v-1177q0 -78 -88 -78t-88 78v1153q0 57 -55 57h-303q-53 0 -60 -57q-4 -51 -16 -203t-23.5 -306.5t-19.5 -273.5q-12 -188 -51 -282 q-70 -174 -248 -170q-51 0 -81 20.5t-27 75.5z" />
<glyph unicode="&#x41c;" horiz-adv-x="1378" d="M133 59v1305q0 78 88 78q74 0 115 -78l354 -680l352 680q41 78 115 78q88 0 88 -78v-1305q0 -78 -76 -77q-84 0 -84 75v1098q-37 -94 -53 -125l-248 -473q-39 -74 -94 -74q-57 0 -96 74l-248 473q-16 31 -53 125v-1098q0 -76 -84 -75q-76 0 -76 77z" />
<glyph unicode="&#x41d;" horiz-adv-x="1230" d="M133 57v1307q0 78 88 78t88 -78v-524h615v524q0 78 86 78q88 0 88 -78v-1307q0 -76 -88 -75q-86 0 -86 75v625h-615v-625q0 -76 -88 -75.5t-88 75.5z" />
<glyph unicode="&#x41e;" horiz-adv-x="1323" d="M72 717q0 342 146.5 541.5t443 199.5t443 -199.5t146.5 -541.5q0 -340 -147.5 -540t-442 -200t-442 200t-147.5 540zM258 717q0 -604 403.5 -604t403.5 604q0 606 -403.5 606t-403.5 -606z" />
<glyph unicode="&#x41f;" horiz-adv-x="1230" d="M133 59v1186q0 88 35 138.5t133 50.5h627q98 0 134 -50.5t36 -138.5v-1186q0 -78 -88 -77.5t-88 77.5v1160q0 57 -56 57h-504q-55 0 -55 -57v-1160q0 -78 -88 -77q-86 0 -86 77z" />
<glyph unicode="&#x420;" horiz-adv-x="1116" d="M133 57v1188q0 88 35 138.5t133 50.5h324q195 0 317.5 -116t122.5 -312q0 -188 -118 -306t-304 -118h-336v-525q0 -76 -88 -75q-86 0 -86 75zM307 731h320q121 0 191.5 76t70.5 199q0 119 -67.5 198.5t-182.5 79.5h-277q-31 0 -43 -13.5t-12 -45.5v-494z" />
<glyph unicode="&#x421;" horiz-adv-x="1214" d="M72 717q0 346 143.5 543.5t446.5 197.5q209 0 347 -124t152 -335q8 -68 -76 -75q-80 0 -88 63q-23 145 -106.5 240.5t-228.5 95.5q-102 0 -178 -38t-118 -96.5t-68 -143t-33 -160.5t-7 -168t7 -168t33 -161t68 -142.5t117.5 -95t178.5 -37.5q145 0 229 94t106 242 q10 66 88 61q84 -4 76 -76q-16 -199 -151.5 -328t-347.5 -129q-303 0 -446.5 197t-143.5 543z" />
<glyph unicode="&#x422;" horiz-adv-x="1007" d="M31 1354q-1 80 69 80h807q70 0 70 -80q0 -78 -70 -78h-315v-1219q0 -76 -88 -75q-86 0 -86 75v1219h-318q-70 0 -69 78z" />
<glyph unicode="&#x423;" horiz-adv-x="1114" d="M29 1364q-18 41 6 59.5t67 18.5q20 0 36 -3t24 -5t17 -12.5t11.5 -14.5t10.5 -20.5t10 -22.5l319 -774l54 -137l47 139l282 772q12 31 19.5 44t31 23.5t64.5 10.5q88 0 57 -78l-413 -1088q-72 -176 -141.5 -237.5t-215.5 -48.5q-78 0 -75 80q2 39 15 56t54 13 q66 -6 108 15.5t53 42t30 65.5z" />
<glyph unicode="&#x424;" horiz-adv-x="1421" d="M43 715q0 248 165 411.5t419 163.5v107q0 76 84 76q86 0 86 -76v-107q254 0 418.5 -163.5t164.5 -411.5t-159.5 -411t-423.5 -171v-98q0 -76 -86 -76q-84 0 -84 76v98q-264 8 -424 171t-160 411zM223 715q0 -203 109.5 -326t294.5 -129v901q-186 -2 -295 -120.5 t-109 -325.5zM797 260q184 6 294.5 129t110.5 326q0 207 -109.5 325.5t-295.5 120.5v-901z" />
<glyph unicode="&#x425;" horiz-adv-x="1091" d="M41 57l401 688l-360 619q-18 45 0 61.5t59 16.5q66 0 95.5 -15.5t54.5 -62.5l256 -471l254 471q25 47 55.5 62.5t93.5 15.5q88 0 43 -78l-350 -602l408 -705q23 -41 -3 -58t-71 -17q-33 0 -48.5 2t-41 19t-45.5 54l-303 545l-306 -545q-20 -37 -40.5 -54t-34 -19 t-41.5 -2q-45 0 -72 18t-4 57z" />
<glyph unicode="&#x426;" horiz-adv-x="1308" d="M133 188v1176q0 78 86 78q88 0 88 -78v-1149q0 -57 55 -57h570v1206q0 78 88 78q86 0 86 -78v-1206h31q76 0 108.5 -35t32.5 -105v-249q0 -78 -78 -78t-78 78v196q0 35 -41 35h-780q-98 0 -133 50t-35 138z" />
<glyph unicode="&#x427;" horiz-adv-x="1157" d="M92 864v500q0 78 86 78q88 0 88 -78v-500q0 -100 62.5 -161.5t173.5 -61.5q348 0 348 246v477q0 78 88 78q86 0 86 -78v-1307q0 -76 -86 -75q-88 0 -88 75v568q-98 -129 -361 -129q-156 0 -276.5 90t-120.5 278z" />
<glyph unicode="&#x428;" horiz-adv-x="1775" d="M133 188v1176q0 78 86 78q88 0 88 -78v-1149q0 -57 55 -57h439v1206q0 78 88 78q86 0 86 -78v-1206h438q55 0 55 57v1149q0 78 88 78q86 0 86 -78v-1176q0 -88 -34.5 -138t-132.5 -50h-1174q-98 0 -133 50t-35 138z" />
<glyph unicode="&#x429;" horiz-adv-x="1861" d="M133 188v1176q0 78 88 78q86 0 86 -78v-1149q0 -57 58 -57h438v1206q0 78 86 78q88 0 88 -78v-1206h493v1206q0 78 86 78q88 0 89 -78v-1206h45q78 0 109.5 -35t31.5 -105v-249q0 -78 -76 -78q-80 0 -80 78v196q0 35 -39 35h-1333q-98 0 -134 50t-36 138z" />
<glyph unicode="&#x42a;" horiz-adv-x="1329" d="M10 1354q0 80 70 80h287q76 0 108.5 -35t32.5 -105v-432h338q186 0 304 -116.5t118 -305.5q0 -197 -124 -318.5t-317 -121.5h-325q-96 0 -132 50t-36 138v1051q0 37 -39 37h-215q-70 0 -70 78zM508 215q0 -57 57 -57h275q115 0 183.5 82t68.5 200q0 123 -71 194t-194 71 h-319v-490z" />
<glyph unicode="&#x42b;" horiz-adv-x="1556" d="M133 188v1186q0 78 88 78q86 0 86 -78v-512h326q186 0 303 -116.5t117 -305.5q0 -197 -123 -318.5t-316 -121.5h-313q-96 0 -132 50t-36 138zM307 215q0 -31 12.5 -44t45.5 -13h262q115 0 182.5 82t67.5 200q0 123 -70 194t-193 71h-307v-490zM1247 57v1307q0 78 88 78 t88 -78v-1307q0 -76 -88 -75.5t-88 75.5z" />
<glyph unicode="&#x42c;" horiz-adv-x="1126" d="M133 188v1186q0 78 86 78q88 0 88 -78v-512h336q186 0 304 -116.5t118 -305.5q0 -197 -124 -318.5t-316 -121.5h-324q-98 0 -133 50t-35 138zM307 215q0 -57 55 -57h277q115 0 182.5 82t67.5 200q0 123 -69.5 194t-192.5 71h-320v-490z" />
<glyph unicode="&#x42d;" horiz-adv-x="1214" d="M53 434q-8 74 76 76q78 4 88 -61q23 -145 109 -240.5t233 -95.5q119 0 201 48t122 134t56 173t18 200h-507q-70 0 -70 80q0 77 70 77h503q-6 102 -24.5 182t-60.5 156t-119.5 118t-188.5 42q-145 0 -232 -95t-110 -241q-8 -63 -88 -63q-84 6 -76 75q20 203 146.5 331 t359.5 128q303 0 443.5 -196.5t140.5 -544.5q0 -346 -140.5 -543t-443.5 -197q-233 0 -359 127t-147 330z" />
<glyph unicode="&#x42e;" horiz-adv-x="1787" d="M133 57v1307q0 78 86 78q88 0 88 -78v-524h266q25 291 164.5 454.5t405.5 163.5q295 0 434 -197.5t139 -543.5q0 -344 -140 -542t-433 -198q-283 0 -424.5 187.5t-149.5 517.5h-262v-625q0 -76 -88 -75q-86 0 -86 75zM756 717q0 -92 7 -168t30.5 -161t63.5 -142.5 t113.5 -95t172 -37.5t172.5 37.5t113.5 95t63.5 142.5t31 161t7 168q0 94 -7 169t-31 159.5t-63.5 142t-113.5 96.5t-172.5 39t-172 -39t-113.5 -96.5t-63.5 -142t-30.5 -159.5t-7 -169z" />
<glyph unicode="&#x42f;" horiz-adv-x="1157" d="M45 68q33 53 61.5 111.5t62.5 134t52 114.5q78 170 197 227q-152 31 -239 122t-87 247q0 195 122 302.5t318 107.5h324q98 0 133 -50.5t35 -138.5v-1188q0 -76 -86 -75q-88 -1 -88 75v561h-135q-123 0 -200 -57t-142 -199q-12 -29 -37 -87t-40 -94t-42 -82t-57 -83 q-16 -18 -50 -28.5t-67 -1.5q-74 16 -35 82zM268 1024q0 -133 91.5 -195.5t230.5 -62.5h260v459q0 33 -12.5 46t-42.5 13h-277q-117 0 -183.5 -71.5t-66.5 -188.5z" />
<glyph unicode="&#x430;" horiz-adv-x="1024" d="M51 293q0 369 559 369q12 0 135 -5q0 125 -18 183q-41 123 -242 123q-127 0 -227 -78q-51 -43 -106 2q-55 49 10 106q115 96 348 97q209 0 300 -106.5t91 -326.5v-450q0 -78 8 -133q10 -68 -57 -80q-82 -11 -94 59q-12 61 -13 137q-104 -219 -360 -219q-145 0 -239.5 85 t-94.5 237zM223 287q0 -92 54.5 -140.5t140.5 -48.5q145 0 237 109q104 121 90 328q-98 6 -147 6q-94 0 -171 -17.5t-140.5 -78t-63.5 -158.5z" />
<glyph unicode="&#x431;" horiz-adv-x="1054" d="M94 547q-2 111 6.5 205t36 201.5t74.5 193.5t129 164t195 127q29 12 91 34.5t108 44t81 52.5q31 25 61.5 15.5t49.5 -46.5q33 -68 -45 -119q-35 -23 -287 -112q-275 -97 -336 -392l4 -2q121 168 307 168q238 0 336.5 -143t98.5 -408q0 -551 -453 -550q-127 0 -218 48 t-140.5 132t-73 179t-25.5 208zM266 530q0 -424 285 -424q84 0 142.5 38t88 104.5t41 134.5t11.5 147.5t-11.5 147t-41 134.5t-88 104.5t-142.5 37.5q-285 0 -285 -424z" />
<glyph unicode="&#x432;" horiz-adv-x="1024" d="M133 190v680q0 47 3 72t16.5 57.5t48.5 47t90 14.5h305q156 0 235.5 -66.5t79.5 -189.5q0 -178 -153 -238q195 -57 194 -272q0 -127 -89 -211t-220 -84h-352q-55 0 -90 14.5t-48.5 47t-16.5 57t-3 71.5zM295 182q0 -29 10 -41t43 -12h248q180 0 180 180q0 186 -180 187 h-301v-314zM295 621h301q66 0 109 42t43 119q0 150 -152 150h-248q-33 0 -43 -12t-10 -39v-260z" />
<glyph unicode="&#x433;" horiz-adv-x="759" d="M133 51v819q0 47 3 72t16.5 57.5t48.5 47t90 14.5h391q57 0 57 -64q0 -66 -57 -65h-336q-33 0 -43 -12.5t-10 -38.5v-830q0 -72 -80 -71.5t-80 71.5z" />
<glyph unicode="&#x434;" horiz-adv-x="989" d="M0 14q0 57 20.5 84t69.5 56q55 29 80 188q12 104 22.5 308t12.5 220q2 41 9 70t22.5 59.5t46 46t77.5 15.5h334q47 0 79 -12.5t47.5 -26.5t23.5 -45t9 -49.5t1 -57.5v-743q115 -2 115 -113v-188q0 -70 -72 -70q-70 0 -70 70v143q0 31 -32 31h-621q-33 0 -33 -31v-143 q0 -70 -69 -70q-72 0 -72 70v188zM246 127h448v752q0 29 -10 41t-43 12h-229q-33 0 -43.5 -14.5t-14.5 -45.5q-2 -29 -6 -136t-12 -214.5t-21 -185.5q-18 -148 -69 -209z" />
<glyph unicode="&#x435;" horiz-adv-x="1038" d="M74 526q0 240 116.5 402t352.5 162q195 0 310.5 -120t111.5 -313q0 -68 -32 -104.5t-136 -36.5h-545q2 -174 72.5 -290.5t228.5 -116.5q88 0 155.5 48t94.5 134q8 27 33.5 42t56.5 11q33 -4 50 -25.5t9 -56.5q-33 -137 -147.5 -214t-259.5 -77q-156 0 -265.5 80 t-157.5 203t-48 272zM256 639h510q45 4 43 49q-4 129 -72.5 203t-187.5 74q-127 0 -208 -100.5t-85 -225.5z" />
<glyph unicode="&#x436;" horiz-adv-x="1349" d="M57 47q43 100 93 270q72 244 249 279q-125 49 -200 207q-90 184 -97 196q-45 76 48 86q66 6 98 -36q20 -29 100 -195q92 -190 248 -215v373q0 70 78 70t78 -70v-373q158 25 249 215q6 14 27 59t37 76t37 60q33 43 96 36q92 -10 49 -86q-20 -37 -52 -105.5t-44 -90.5 q-76 -158 -201 -207q178 -35 250 -279q41 -147 90 -270q25 -55 -39 -67q-66 -10 -94 20q-16 20 -31.5 54t-22.5 56.5t-20.5 75t-17.5 64.5q-41 154 -100.5 215t-212.5 55v-469q0 -72 -78 -71.5t-78 71.5v469q-152 6 -212 -55.5t-101 -214.5q-2 -8 -13.5 -51t-15.5 -59.5 t-15.5 -48.5t-22.5 -53.5t-26 -37.5q-25 -31 -92 -20q-61 12 -41 67z" />
<glyph unicode="&#x437;" horiz-adv-x="905" d="M53 283q-4 37 18.5 55t59.5 18q70 0 78 -63q8 -98 72.5 -149.5t160.5 -51.5q104 0 164 57.5t60 155.5q0 104 -79 148.5t-190 38.5q-33 -2 -49 14t-16 51q-1 61 71 61q100 0 169 41t69 138q0 80 -53 125t-137 45q-213 0 -232 -187q-6 -47 -63 -51q-35 0 -59.5 16.5 t-22.5 45.5q12 150 112.5 224.5t264.5 74.5q152 0 254 -72t102 -211q0 -164 -191 -246q217 -61 218 -260q0 -156 -106.5 -243t-276.5 -87q-168 0 -272.5 79t-125.5 233z" />
<glyph unicode="&#x438;" horiz-adv-x="1071" d="M133 51v961q0 70 80 69q82 0 82 -69v-772q29 68 94 174l399 639q18 29 70 28q80 1 80 -69v-961q0 -72 -80 -71.5t-80 71.5v766q-14 -37 -88 -160l-405 -645q-18 -33 -72 -32q-80 0 -80 71z" />
<glyph unicode="&#x439;" horiz-adv-x="1071" d="M133 51v961q0 70 80 69.5t80 -69.5v-772q34 74 495 813q18 29 70 28q80 0 80 -69v-961q0 -72 -80 -71.5t-80 71.5v766q-57 -111 -84 -151l-409 -654q-18 -33 -72 -32q-80 0 -80 71zM274 1368q-23 51 17 72q49 20 80 -21q68 -78 166 -78q100 0 163 78q35 39 80 21 q41 -20 19 -72q-33 -68 -105.5 -105.5t-156.5 -37.5q-98 0 -168 44t-95 99z" />
<glyph unicode="&#x43a;" horiz-adv-x="937" d="M133 51v961q0 70 80 70t80 -70v-375q104 10 166.5 56t111.5 132q16 27 55.5 101.5t67.5 115.5q33 43 97 37q90 -6 47 -82q-20 -33 -61.5 -107.5t-65.5 -113.5q-82 -135 -195 -180q174 -33 254 -279q16 -51 111 -270q20 -55 -41 -67q-68 -10 -92 20q-16 20 -34 53 t-27 54.5t-27.5 73.5t-22.5 65q-51 150 -121 213t-223 57v-465q0 -72 -80 -71.5t-80 71.5z" />
<glyph unicode="&#x43b;" horiz-adv-x="980" d="M2 49q4 72 53 72q35 0 56.5 11t33 34.5t16.5 46.5t9 63q2 12 2 19q16 119 28.5 325.5t14.5 221.5q2 41 4 60.5t12.5 55t26.5 54t49 34t78 15.5h305q45 0 77 -12.5t47 -26.5t22.5 -46t8.5 -49.5t1 -56.5v-821q0 -70 -80 -69.5t-80 69.5v830q0 27 -10 39t-43 12h-197 q-61 0 -65 -62q-2 -33 -10.5 -155.5t-17.5 -234t-19 -202.5q-18 -147 -76 -224t-172 -68q-39 2 -57.5 20.5t-16.5 44.5z" />
<glyph unicode="&#x43c;" horiz-adv-x="1216" d="M133 51v959q0 70 88 69q61 0 101 -69l286 -529l287 529q39 70 102 69q86 0 86 -69v-959q0 -72 -71 -71q-74 0 -74 71v776q-20 -70 -51 -133l-191 -344q-41 -69 -88 -69q-49 0 -88 69l-190 344q-31 63 -51 133v-776q0 -72 -74 -71q-72 0 -72 71z" />
<glyph unicode="&#x43d;" horiz-adv-x="1038" d="M133 51v961q0 70 80 70t80 -70v-389h452v389q0 70 80 69.5t80 -69.5v-961q0 -72 -80 -71.5t-80 71.5v443h-452v-443q0 -72 -80 -71.5t-80 71.5z" />
<glyph unicode="&#x43e;" horiz-adv-x="1050" d="M72 528q0 553 454 553q453 0 453 -553q0 -549 -453 -548q-454 -1 -454 548zM242 528.5q0 -436.5 284.5 -436.5t284.5 436.5t-284.5 436.5t-284.5 -436.5z" />
<glyph unicode="&#x43f;" horiz-adv-x="1042" d="M135 51v819q0 47 3 71t16.5 57.5t47.5 48t89 14.5h461q55 0 90 -14.5t48 -47t16 -57t3 -72.5v-819q0 -72 -79.5 -71.5t-79.5 71.5v830q0 27 -11.5 39t-44.5 12h-346q-33 0 -43 -12.5t-10 -38.5v-830q0 -72 -80 -71.5t-80 71.5z" />
<glyph unicode="&#x440;" horiz-adv-x="1081" d="M133 -311v1323q0 70 78 69q74 1 74 -69v-115q121 190 325 190q399 0 400 -557q0 -246 -101.5 -401.5t-320.5 -155.5q-180 0 -293 166v-450q0 -70 -82 -70q-80 0 -80 70zM295 496q0 -143 74.5 -262t212.5 -119q252 0 252 415.5t-252 415.5q-137 0 -212 -105.5t-75 -244.5 v-100z" />
<glyph unicode="&#x441;" horiz-adv-x="970" d="M72 528q0 553 452 553q94 0 166 -30.5t113 -80.5t62.5 -98.5t29.5 -95.5q12 -78 -59 -86q-78 -4 -93 58q-49 205 -219 204q-84 0 -142 -37.5t-87 -104.5t-41 -134.5t-12 -147t12 -147.5t41 -134.5t87 -104.5t142 -38q170 0 219 205q14 63 93 58q39 -2 52 -22.5t7 -63.5 q-8 -47 -29.5 -94.5t-62.5 -96.5t-113 -79.5t-166 -30.5q-452 -1 -452 548z" />
<glyph unicode="&#x442;" horiz-adv-x="798" d="M31 997q0 64 57 64h625q55 0 55 -64q0 -66 -55 -65h-234v-881q0 -72 -80 -71.5t-80 71.5v881h-231q-57 0 -57 65z" />
<glyph unicode="&#x443;" horiz-adv-x="937" d="M37 1012q-14 35 9.5 52t66.5 17q72 0 96 -69l227 -635q20 -55 37 -131q10 57 37 133l215 633q23 70 94 69q43 0 69.5 -17t14.5 -52l-399 -1114q-10 -29 -17.5 -47.5t-19.5 -46t-22.5 -46t-28 -40t-33.5 -35t-40 -26.5t-49.5 -18.5t-58 -5.5t-69.5 9q-61 14 -53 90 q8 72 86 51q63 -12 93 16.5t52 94.5l49 147z" />
<glyph unicode="&#x444;" horiz-adv-x="1290" d="M51 530.5q0 507.5 518 542.5v297q0 72 76 72t76 -72v-297q242 -14 380 -152.5t138 -390.5q0 -496 -518 -542v-297q0 -72 -76 -72t-76 72v297q-518 35 -518 542.5zM223 530.5q0 -204.5 93.5 -313t252.5 -121.5v860q-162 -12 -254 -116.5t-92 -309zM721 96q172 12 259 132 t87 302.5t-84 295t-262 130.5v-860z" />
<glyph unicode="&#x445;" horiz-adv-x="909" d="M36.5 0q-16.5 20 10.5 61l318 506l-275 437q-20 41 -3 59t65 18q29 0 42 -2t29.5 -14t30.5 -37l199 -344l198 344q20 37 41 45t62 8q45 0 66.5 -16t-1.5 -53l-278 -445l325 -518q23 -37 1.5 -53t-66.5 -16q-39 0 -59.5 9t-43.5 46l-245 416l-246 -416q-23 -37 -43.5 -46 t-59.5 -9q-51 0 -67.5 20z" />
<glyph unicode="&#x446;" horiz-adv-x="1097" d="M135 190v822q0 70 80 69.5t80 -69.5v-830q0 -29 10 -41t43 -12h397v883q0 70 80 69.5t80 -69.5v-883h49q61 0 87 -27.5t26 -87.5v-186q0 -72 -74 -72q-68 0 -67 72v141q0 31 -33 31h-602q-55 0 -89 14.5t-47.5 47t-16.5 57t-3 71.5z" />
<glyph unicode="&#x447;" horiz-adv-x="940" d="M72 668v344q0 70 79.5 69.5t79.5 -69.5v-295q0 -127 39 -179.5t140 -52.5q119 0 178 54.5t59 136.5v336q0 70 80 70t80 -70v-961q0 -72 -80 -71.5t-80 71.5v404q-84 -90 -252 -90q-324 0 -323 303z" />
<glyph unicode="&#x448;" horiz-adv-x="1519" d="M133 190v822q0 70 80 69.5t80 -69.5v-830q0 -29 11 -41t44 -12h332v883q0 70 80 70t80 -70v-883h331q33 0 43.5 12.5t10.5 40.5v830q0 70 79.5 69.5t79.5 -69.5v-822q0 -47 -3 -71.5t-16 -57t-47 -47t-89 -14.5h-938q-55 0 -90 14.5t-48.5 47t-16.5 57t-3 71.5z" />
<glyph unicode="&#x449;" horiz-adv-x="1599" d="M135 190v822q0 70 80 69.5t80 -69.5v-830q0 -29 10 -41t43 -12h332v883q0 70 80 69.5t80 -69.5v-883h387v883q0 70 79.5 69.5t79.5 -69.5v-883h70q61 0 87 -27.5t26 -87.5v-186q0 -72 -74 -72q-68 0 -68 72v141q0 31 -32 31h-1104q-55 0 -89 14.5t-47.5 47t-16.5 57 t-3 71.5z" />
<glyph unicode="&#x44a;" d="M20 995q0 66 58 66h217q115 0 115 -115v-293h301q152 0 239.5 -90t87.5 -235q0 -141 -95 -234.5t-236 -93.5h-297q-47 0 -78 12.5t-46.5 26.5t-23.5 45t-9 49t-1 57v711q0 31 -33 31h-141q-57 0 -58 63zM410 180q0 -33 14 -42t43 -9h215q180 0 180 193q0 203 -180 202 h-272v-344z" />
<glyph unicode="&#x44b;" horiz-adv-x="1323" d="M133 190v820q0 72 80 71q78 1 78 -71v-357h299q154 0 241 -89t87 -234q0 -143 -95.5 -236.5t-236.5 -93.5h-297q-55 0 -89 14.5t-47.5 48t-16.5 57t-3 70.5zM291 180q0 -33 14 -42t43 -9h215q88 0 134 51t46 144q0 199 -180 198h-272v-342zM1032 49v961q0 72 78 71 q80 1 80 -71v-961q0 -70 -80 -69q-78 0 -78 69z" />
<glyph unicode="&#x44c;" horiz-adv-x="960" d="M133 190v822q0 70 80 70t80 -70v-359h299q152 0 240 -89t88 -234q0 -143 -95.5 -236.5t-236.5 -93.5h-297q-55 0 -90 14.5t-48.5 47t-16.5 57t-3 71.5zM293 182q0 -29 11 -41t44 -12h215q180 0 180 195q0 201 -180 200h-270v-342z" />
<glyph unicode="&#x44d;" horiz-adv-x="968" d="M76 281q-6 43 6 63.5t51 22.5q78 6 92 -58q49 -205 236 -205q78 0 131 32t80.5 91.5t39 119t15.5 134.5h-348q-57 0 -57 64q0 66 57 65h346q-6 72 -19.5 126.5t-41 106.5t-80 80.5t-123.5 28.5q-186 0 -236 -204q-14 -61 -92 -58q-70 8 -57 86q16 111 109.5 208t267.5 97 q444 0 444 -553q0 -260 -102.5 -404t-341.5 -144q-92 0 -166 30.5t-116 78.5t-65.5 96t-29.5 96z" />
<glyph unicode="&#x44e;" horiz-adv-x="1505" d="M133 51v961q0 70 80 69.5t80 -69.5v-375h237q23 207 133.5 325.5t317.5 118.5q453 0 453 -551q0 -549 -453 -548q-430 0 -455 526h-233v-457q0 -72 -80 -71.5t-80 71.5zM696 530q0 -76 12.5 -145.5t41 -139t88 -110.5t143.5 -41q283 0 283 436.5t-283 436.5 q-106 0 -174 -72t-89.5 -163t-21.5 -202z" />
<glyph unicode="&#x44f;" horiz-adv-x="1009" d="M58 10.5q-13 24.5 3 48.5q47 66 115 226q31 74 62.5 117.5t80.5 70.5q-98 18 -164.5 95t-66.5 173q0 154 96.5 237t255.5 83h279q92 0 125 -45t33 -137v-828q0 -72 -80 -71.5t-80 71.5v379h-139q-188 0 -256 -197q-53 -154 -109 -217q-41 -47 -107 -36q-35 6 -48 30.5z M262 739q0 -86 62.5 -133t150.5 -47h242v322q0 29 -11.5 40t-43.5 11h-205q-90 0 -142.5 -49t-52.5 -144z" />
<glyph unicode="&#x451;" horiz-adv-x="1036" d="M72 526q0 240 116.5 402t352.5 162q195 0 310.5 -120t111.5 -313q0 -68 -32 -104.5t-136 -36.5h-545q2 -174 72.5 -290.5t228.5 -116.5q88 0 155.5 48t94.5 134q8 27 33.5 42t56.5 11q33 -4 50 -25.5t9 -56.5q-33 -137 -147.5 -214t-259.5 -77q-156 0 -265.5 80 t-157.5 203t-48 272zM254 639h510q45 4 43 49q-4 129 -72.5 203t-187.5 74q-127 0 -208 -100.5t-85 -225.5zM268 1341q1 101 97 101q94 0 94 -101q0 -51 -19.5 -78.5t-74.5 -27.5q-57 0 -77 27.5t-20 78.5zM606 1341q0 49 20.5 75t73.5 26q96 0 97 -101q0 -51 -19.5 -78.5 t-77.5 -27.5q-55 0 -74.5 27.5t-19.5 78.5z" />
<glyph unicode="&#x452;" horiz-adv-x="1110" d="M41 1245q0 55 51 55h109v66q0 72 73 72q84 0 84 -72v-66h297q47 0 47 -55q0 -57 -47 -57h-297v-307q123 209 328 209q82 0 141.5 -26t94 -66t54 -102t26 -121.5t6.5 -137.5v-725q0 -166 -92.5 -247t-223.5 -58q-33 4 -51 29.5t-14 64.5q8 53 71 45q80 -4 117 35t37 123 v774q0 266 -190 266q-137 0 -220.5 -110.5t-83.5 -251.5v-535q0 -66 -84 -65q-74 0 -73 65v1141h-109q-51 0 -51 57z" />
<glyph unicode="&#x453;" horiz-adv-x="759" d="M133 47v819q0 45 3 70t16.5 57.5t48.5 48t92 15.5h391q55 0 55 -65.5t-55 -65.5h-338q-29 0 -40 -12.5t-11 -39.5v-827q0 -63 -78 -63q-84 0 -84 63zM377 1212l84 199q27 51 114 49q59 -2 74 -29.5t-12 -58.5l-135 -172q-21 -39 -72 -31q-31 0 -46 12.5t-7 30.5z" />
<glyph unicode="&#x454;" horiz-adv-x="970" d="M72 528q0 553 454 553q92 0 164 -30.5t113 -80.5t62.5 -98.5t29.5 -95.5q12 -78 -59 -86q-78 -4 -93 58q-49 205 -225 204q-246 0 -274 -342h348q55 0 55 -65q0 -63 -55 -64h-350q16 -377 276 -377q176 0 225 205q14 63 93 58q39 -2 52 -22.5t7 -63.5q-8 -47 -29.5 -94.5 t-62.5 -96.5t-113 -79.5t-164 -30.5q-454 -1 -454 548z" />
<glyph unicode="&#x455;" horiz-adv-x="948" d="M74 270q-6 37 12 60.5t49 23.5q84 0 98 -59q27 -100 90.5 -147.5t190.5 -47.5q84 0 149.5 51.5t65.5 131.5q0 49 -23.5 82.5t-70.5 54t-79 30t-89 19.5q-72 14 -111 23.5t-100 33t-93 53t-57.5 80t-25.5 117.5q0 152 113.5 233t267.5 81q322 0 383 -238q23 -82 -76 -82 q-72 0 -82 49q-25 143 -219 144q-84 0 -155.5 -42t-71.5 -124q0 -29 11 -53.5t34.5 -41t46 -28.5t58.5 -20.5t55.5 -12.5t54.5 -10q86 -14 144 -31.5t122.5 -53.5t97.5 -98.5t33 -150.5q0 -164 -121 -245t-284 -81q-180 0 -287.5 79t-130.5 220z" />
<glyph unicode="&#x456;" horiz-adv-x="450" d="M133 1343q0 49 19.5 73t73 24t72.5 -23.5t19 -73.5q0 -104 -92 -104t-92 104zM145 49v961q0 72 80 72t80 -72v-961q0 -70 -80 -69.5t-80 69.5z" />
<glyph unicode="&#x457;" horiz-adv-x="489" d="M31 1339q0 49 19.5 73t72.5 24t72.5 -23.5t19.5 -73.5q0 -104 -92 -104t-92 104zM164 49v961q0 72 80 72t80 -72v-961q0 -72 -80 -72t-80 72zM274 1339q0 49 19.5 73t73 24t73 -23.5t19.5 -73.5q0 -104 -92.5 -104t-92.5 104z" />
<glyph unicode="&#x458;" horiz-adv-x="464" d="M-106 -262q16 57 73 43q39 -10 60 -8q43 2 71.5 22.5t40 57t15.5 69.5t4 78v1010q0 72 79.5 71.5t79.5 -71.5v-1010q0 -82 -10 -139.5t-39.5 -112.5t-91 -84t-156.5 -29q-41 1 -86 17q-59 23 -40 86zM141 1343q1 101 97 101q53 0 73.5 -25.5t20.5 -75.5 q0 -53 -19.5 -79.5t-74.5 -26.5q-57 0 -77 26.5t-20 79.5z" />
<glyph unicode="&#x459;" horiz-adv-x="1548" d="M23 47q0 72 55 72q29 2 49 12t31.5 20.5t18.5 40t9 43t9 58.5q10 92 18 201.5t14 213t9 132.5q2 47 7 75.5t20.5 66.5t51 56.5t91.5 18.5h301q57 0 92 -15.5t48 -48t16 -57.5t3 -70v-217h293q154 0 241 -87t87 -236q0 -141 -94.5 -233.5t-235.5 -92.5h-295 q-55 0 -90 14.5t-48 47t-16 57t-3 71.5v684q0 29 -10.5 40.5t-45.5 11.5h-196q-55 0 -66 -60q-2 -39 -9 -156.5t-16.5 -231t-19.5 -204.5q-18 -147 -75.5 -223t-170.5 -67q-78 4 -73 63zM866 180q0 -29 9.5 -40t42.5 -11h215q88 0 134 49t46 141q0 98 -46 151.5t-134 53.5 h-267v-344z" />
<glyph unicode="&#x45a;" horiz-adv-x="1583" d="M133 47v961q0 68 78 67.5t78 -67.5v-371h452v371q0 68 74 67q82 1 82 -67v-371h297q152 0 240 -86t88 -232q0 -141 -94.5 -230t-237.5 -89h-295q-55 0 -88 14.5t-46 47t-16.5 57t-3.5 71.5v318h-452v-461q0 -63 -78 -63t-78 63zM897 180q0 -33 13.5 -42t43.5 -9h211 q182 0 183 184q0 195 -183 195h-268v-328z" />
<glyph unicode="&#x45b;" horiz-adv-x="1114" d="M41 1245q0 55 51 55h115v66q0 72 76 72q80 0 79 -72v-66h293q51 0 52 -55q0 -57 -52 -57h-293v-307q127 209 326 209q82 0 142.5 -26t94 -66t54 -102t27 -121.5t6.5 -137.5v-582q0 -68 -80 -67.5t-80 67.5v623q0 125 -41 195.5t-149 70.5q-133 0 -216.5 -110.5 t-83.5 -251.5v-535q0 -66 -79 -65q-76 0 -76 65v1141h-115q-51 0 -51 57z" />
<glyph unicode="&#x45c;" horiz-adv-x="927" d="M133 47v961q0 68 80 67q82 1 82 -67v-371q104 8 167.5 55t112.5 131q10 18 49.5 95t69.5 118q8 18 32 31.5t60 7.5q92 -14 50 -84q-27 -45 -125 -215q-82 -135 -193 -180q168 -33 252 -283q29 -84 113 -270q18 -53 -43 -59q-74 -12 -95 16q-45 51 -108 244 q-51 150 -121 214t-221 60v-471q0 -63 -82 -63q-80 0 -80 63zM385 1206l84 197q20 49 117 43q109 0 59 -80l-129 -178q-39 -35 -78 -31q-31 2 -46 15.5t-7 33.5z" />
<glyph unicode="&#x45e;" horiz-adv-x="937" d="M37 1012q-14 35 9.5 52t66.5 17q72 0 96 -69l227 -635q20 -55 37 -131q10 57 37 133l215 633q23 70 94 69q43 0 69.5 -17t14.5 -52l-399 -1114q-10 -29 -17.5 -47.5t-19.5 -46t-22.5 -46t-28 -40t-33.5 -35t-40 -26.5t-49.5 -18.5t-58 -5.5t-69.5 9q-61 14 -53 90 q8 72 86 51q63 -12 93 16.5t52 94.5l49 147zM213 1368q-23 51 16 72q49 20 80 -21q68 -78 166 -78q101 0 164 78q35 39 80 21q41 -20 18 -72q-33 -68 -105.5 -105.5t-156.5 -37.5q-98 0 -167.5 44t-94.5 99z" />
<glyph unicode="&#x45f;" horiz-adv-x="1034" d="M133 190v818q0 68 80 67q76 0 76 -67v-828q0 -27 11 -39t42 -12h348q33 0 43 11.5t10 39.5v828q0 68 80 67q76 0 76 -67v-818q0 -49 -2 -71.5t-15.5 -56t-46 -48t-87.5 -14.5h-156v-215q0 -68 -76 -68q-78 0 -78 68v215h-151q-55 0 -88 14.5t-46.5 47t-16.5 57t-3 71.5z " />
<glyph unicode="&#x490;" horiz-adv-x="974" d="M133 66v1175q0 90 35 140.5t133 50.5h438q33 0 40 11t7 46v270q0 66 74 66t74 -66v-329q0 -158 -146 -158h-423q-33 0 -45.5 -13.5t-12.5 -46.5v-1146q0 -72 -88 -72q-86 0 -86 72z" />
<glyph unicode="&#x491;" horiz-adv-x="780" d="M135 47v819q0 39 1 55.5t8.5 49.5t22.5 47t47 26.5t79 12.5h291q23 0 32 7t11 16.5t2 31.5v277q0 53 61 53q70 0 70 -53v-328q0 -51 -29 -93t-102 -42h-281q-33 0 -42 -11.5t-9 -40.5v-827q0 -63 -82 -63q-80 0 -80 63z" />
<glyph unicode="&#x2000;" horiz-adv-x="912" />
<glyph unicode="&#x2001;" horiz-adv-x="1825" />
<glyph unicode="&#x2002;" horiz-adv-x="912" />
<glyph unicode="&#x2003;" horiz-adv-x="1825" />
<glyph unicode="&#x2004;" horiz-adv-x="608" />
<glyph unicode="&#x2005;" horiz-adv-x="456" />
<glyph unicode="&#x2006;" horiz-adv-x="304" />
<glyph unicode="&#x2007;" horiz-adv-x="304" />
<glyph unicode="&#x2008;" horiz-adv-x="228" />
<glyph unicode="&#x2009;" horiz-adv-x="365" />
<glyph unicode="&#x200a;" horiz-adv-x="101" />
<glyph unicode="&#x2010;" horiz-adv-x="700" d="M92 547q0 74 64 74h389q63 0 63 -74q0 -72 -63 -72h-389q-63 0 -64 72z" />
<glyph unicode="&#x2011;" horiz-adv-x="700" d="M92 547q0 74 64 74h389q63 0 63 -74q0 -72 -63 -72h-389q-63 0 -64 72z" />
<glyph unicode="&#x2012;" horiz-adv-x="700" d="M92 547q0 74 64 74h389q63 0 63 -74q0 -72 -63 -72h-389q-63 0 -64 72z" />
<glyph unicode="&#x2013;" horiz-adv-x="1208" d="M92 547q0 74 127 74h772q125 0 125 -74q0 -72 -125 -72h-772q-125 0 -127 72z" />
<glyph unicode="&#x2014;" horiz-adv-x="2232" d="M92 547q0 74 254 74h1544q250 0 250 -74q0 -72 -250 -72h-1544q-250 0 -254 72z" />
<glyph unicode="&#x202f;" horiz-adv-x="365" />
<glyph unicode="&#x205f;" horiz-adv-x="456" />
<glyph unicode="&#x25fc;" horiz-adv-x="1085" d="M0 0v1085h1085v-1085h-1085z" />
</font>
</defs>
</svg>
